<?xml version="1.0" encoding="utf-8" standalone="no"?>
<!DOCTYPE svg PUBLIC "-//W3C//DTD SVG 1.1//EN"
  "http://www.w3.org/Graphics/SVG/1.1/DTD/svg11.dtd">
<!-- Created with matplotlib (http://matplotlib.org/) -->
<svg height="336pt" version="1.1" viewBox="0 0 595 336" width="595pt" xmlns="http://www.w3.org/2000/svg" xmlns:xlink="http://www.w3.org/1999/xlink">
 <defs>
  <style type="text/css">
*{stroke-linecap:butt;stroke-linejoin:round;stroke-miterlimit:100000;}
  </style>
 </defs>
 <g id="figure_1">
  <g id="patch_1">
   <path d="M 0 336.672 
L 595.44 336.672 
L 595.44 0 
L 0 0 
z
" style="fill:#ffffff;"/>
  </g>
  <g id="axes_1">
   <g id="patch_2">
    <path d="M 197.795312 325.872 
L 584.64 325.872 
L 584.64 10.8 
L 197.795312 10.8 
z
" style="fill:#ffffff;"/>
   </g>
   <g id="LineCollection_1">
    <path clip-path="url(#p25d604ea7f)" d="M 197.795312 314.619429 
L 360.800571 314.619429 
L 360.800571 292.114286 
L 197.795312 292.114286 
" style="fill:none;stroke:#00bfbf;stroke-width:2.0;"/>
    <path clip-path="url(#p25d604ea7f)" d="M 197.795312 269.609143 
L 326.905626 269.609143 
L 326.905626 247.104 
L 197.795312 247.104 
" style="fill:none;stroke:#00bfbf;stroke-width:2.0;"/>
    <path clip-path="url(#p25d604ea7f)" d="M 197.795312 224.598857 
L 360.897512 224.598857 
L 360.897512 202.093714 
L 197.795312 202.093714 
" style="fill:none;stroke:#00bfbf;stroke-width:2.0;"/>
    <path clip-path="url(#p25d604ea7f)" d="M 326.905626 258.356571 
L 363.530432 258.356571 
L 363.530432 213.346286 
L 360.897512 213.346286 
" style="fill:none;stroke:#00bfbf;stroke-width:2.0;"/>
    <path clip-path="url(#p25d604ea7f)" d="M 360.800571 303.366857 
L 455.162616 303.366857 
L 455.162616 235.851429 
L 363.530432 235.851429 
" style="fill:none;stroke:#00bfbf;stroke-width:2.0;"/>
    <path clip-path="url(#p25d604ea7f)" d="M 197.795312 179.588571 
L 338.427624 179.588571 
L 338.427624 157.083429 
L 197.795312 157.083429 
" style="fill:none;stroke:#00bfbf;stroke-width:2.0;"/>
    <path clip-path="url(#p25d604ea7f)" d="M 197.795312 134.578286 
L 373.398588 134.578286 
L 373.398588 112.073143 
L 197.795312 112.073143 
" style="fill:none;stroke:#00bfbf;stroke-width:2.0;"/>
    <path clip-path="url(#p25d604ea7f)" d="M 338.427624 168.336 
L 387.788292 168.336 
L 387.788292 123.325714 
L 373.398588 123.325714 
" style="fill:none;stroke:#00bfbf;stroke-width:2.0;"/>
    <path clip-path="url(#p25d604ea7f)" d="M 197.795312 89.568 
L 262.597977 89.568 
L 262.597977 67.062857 
L 197.795312 67.062857 
" style="fill:none;stroke:#00bfbf;stroke-width:2.0;"/>
    <path clip-path="url(#p25d604ea7f)" d="M 197.795312 44.557714 
L 338.443596 44.557714 
L 338.443596 22.052571 
L 197.795312 22.052571 
" style="fill:none;stroke:#00bfbf;stroke-width:2.0;"/>
    <path clip-path="url(#p25d604ea7f)" d="M 262.597977 78.315429 
L 391.696305 78.315429 
L 391.696305 33.305143 
L 338.443596 33.305143 
" style="fill:none;stroke:#00bfbf;stroke-width:2.0;"/>
    <path clip-path="url(#p25d604ea7f)" d="M 387.788292 145.830857 
L 463.612353 145.830857 
L 463.612353 55.810286 
L 391.696305 55.810286 
" style="fill:none;stroke:#00bfbf;stroke-width:2.0;"/>
    <path clip-path="url(#p25d604ea7f)" d="M 455.162616 269.609143 
L 566.218824 269.609143 
L 566.218824 100.820571 
L 463.612353 100.820571 
" style="fill:none;stroke:#00bfbf;stroke-width:2.0;"/>
   </g>
   <g id="patch_3">
    <path d="M 197.795312 10.8 
L 584.64 10.8 
" style="fill:none;stroke:#000000;stroke-linecap:square;stroke-linejoin:miter;"/>
   </g>
   <g id="patch_4">
    <path d="M 584.64 325.872 
L 584.64 10.8 
" style="fill:none;stroke:#000000;stroke-linecap:square;stroke-linejoin:miter;"/>
   </g>
   <g id="patch_5">
    <path d="M 197.795312 325.872 
L 584.64 325.872 
" style="fill:none;stroke:#000000;stroke-linecap:square;stroke-linejoin:miter;"/>
   </g>
   <g id="patch_6">
    <path d="M 197.795312 325.872 
L 197.795312 10.8 
" style="fill:none;stroke:#000000;stroke-linecap:square;stroke-linejoin:miter;"/>
   </g>
   <g id="matplotlib.axis_1">
    <g id="xtick_1"/>
    <g id="xtick_2"/>
    <g id="xtick_3"/>
    <g id="xtick_4"/>
    <g id="xtick_5"/>
    <g id="xtick_6"/>
   </g>
   <g id="matplotlib.axis_2">
    <g id="ytick_1">
     <g id="text_1">
      <!-- Seven Years In Tibet -->
      <defs>
       <path id="BitstreamVeraSans-Roman-20"/>
       <path d="M 54.890625 33.015625 
L 54.890625 0 
L 45.90625 0 
L 45.90625 32.71875 
Q 45.90625 40.484375 42.875 44.328125 
Q 39.84375 48.1875 33.796875 48.1875 
Q 26.515625 48.1875 22.3125 43.546875 
Q 18.109375 38.921875 18.109375 30.90625 
L 18.109375 0 
L 9.078125 0 
L 9.078125 54.6875 
L 18.109375 54.6875 
L 18.109375 46.1875 
Q 21.34375 51.125 25.703125 53.5625 
Q 30.078125 56 35.796875 56 
Q 45.21875 56 50.046875 50.171875 
Q 54.890625 44.34375 54.890625 33.015625 
" id="BitstreamVeraSans-Roman-6e"/>
       <path d="M 41.109375 46.296875 
Q 39.59375 47.171875 37.8125 47.578125 
Q 36.03125 48 33.890625 48 
Q 26.265625 48 22.1875 43.046875 
Q 18.109375 38.09375 18.109375 28.8125 
L 18.109375 0 
L 9.078125 0 
L 9.078125 54.6875 
L 18.109375 54.6875 
L 18.109375 46.1875 
Q 20.953125 51.171875 25.484375 53.578125 
Q 30.03125 56 36.53125 56 
Q 37.453125 56 38.578125 55.875 
Q 39.703125 55.765625 41.0625 55.515625 
z
" id="BitstreamVeraSans-Roman-72"/>
       <path d="M 9.421875 54.6875 
L 18.40625 54.6875 
L 18.40625 0 
L 9.421875 0 
z
M 9.421875 75.984375 
L 18.40625 75.984375 
L 18.40625 64.59375 
L 9.421875 64.59375 
z
" id="BitstreamVeraSans-Roman-69"/>
       <path d="M 2.984375 54.6875 
L 12.5 54.6875 
L 29.59375 8.796875 
L 46.6875 54.6875 
L 56.203125 54.6875 
L 35.6875 0 
L 23.484375 0 
z
" id="BitstreamVeraSans-Roman-76"/>
       <path d="M 53.515625 70.515625 
L 53.515625 60.890625 
Q 47.90625 63.578125 42.921875 64.890625 
Q 37.9375 66.21875 33.296875 66.21875 
Q 25.25 66.21875 20.875 63.09375 
Q 16.5 59.96875 16.5 54.203125 
Q 16.5 49.359375 19.40625 46.890625 
Q 22.3125 44.4375 30.421875 42.921875 
L 36.375 41.703125 
Q 47.40625 39.59375 52.65625 34.296875 
Q 57.90625 29 57.90625 20.125 
Q 57.90625 9.515625 50.796875 4.046875 
Q 43.703125 -1.421875 29.984375 -1.421875 
Q 24.8125 -1.421875 18.96875 -0.25 
Q 13.140625 0.921875 6.890625 3.21875 
L 6.890625 13.375 
Q 12.890625 10.015625 18.65625 8.296875 
Q 24.421875 6.59375 29.984375 6.59375 
Q 38.421875 6.59375 43.015625 9.90625 
Q 47.609375 13.234375 47.609375 19.390625 
Q 47.609375 24.75 44.3125 27.78125 
Q 41.015625 30.8125 33.5 32.328125 
L 27.484375 33.5 
Q 16.453125 35.6875 11.515625 40.375 
Q 6.59375 45.0625 6.59375 53.421875 
Q 6.59375 63.09375 13.40625 68.65625 
Q 20.21875 74.21875 32.171875 74.21875 
Q 37.3125 74.21875 42.625 73.28125 
Q 47.953125 72.359375 53.515625 70.515625 
" id="BitstreamVeraSans-Roman-53"/>
       <path d="M -0.296875 72.90625 
L 61.375 72.90625 
L 61.375 64.59375 
L 35.5 64.59375 
L 35.5 0 
L 25.59375 0 
L 25.59375 64.59375 
L -0.296875 64.59375 
z
" id="BitstreamVeraSans-Roman-54"/>
       <path d="M 56.203125 29.59375 
L 56.203125 25.203125 
L 14.890625 25.203125 
Q 15.484375 15.921875 20.484375 11.0625 
Q 25.484375 6.203125 34.421875 6.203125 
Q 39.59375 6.203125 44.453125 7.46875 
Q 49.3125 8.734375 54.109375 11.28125 
L 54.109375 2.78125 
Q 49.265625 0.734375 44.1875 -0.34375 
Q 39.109375 -1.421875 33.890625 -1.421875 
Q 20.796875 -1.421875 13.15625 6.1875 
Q 5.515625 13.8125 5.515625 26.8125 
Q 5.515625 40.234375 12.765625 48.109375 
Q 20.015625 56 32.328125 56 
Q 43.359375 56 49.78125 48.890625 
Q 56.203125 41.796875 56.203125 29.59375 
M 47.21875 32.234375 
Q 47.125 39.59375 43.09375 43.984375 
Q 39.0625 48.390625 32.421875 48.390625 
Q 24.90625 48.390625 20.390625 44.140625 
Q 15.875 39.890625 15.1875 32.171875 
z
" id="BitstreamVeraSans-Roman-65"/>
       <path d="M -0.203125 72.90625 
L 10.40625 72.90625 
L 30.609375 42.921875 
L 50.6875 72.90625 
L 61.28125 72.90625 
L 35.5 34.71875 
L 35.5 0 
L 25.59375 0 
L 25.59375 34.71875 
z
" id="BitstreamVeraSans-Roman-59"/>
       <path d="M 18.3125 70.21875 
L 18.3125 54.6875 
L 36.8125 54.6875 
L 36.8125 47.703125 
L 18.3125 47.703125 
L 18.3125 18.015625 
Q 18.3125 11.328125 20.140625 9.421875 
Q 21.96875 7.515625 27.59375 7.515625 
L 36.8125 7.515625 
L 36.8125 0 
L 27.59375 0 
Q 17.1875 0 13.234375 3.875 
Q 9.28125 7.765625 9.28125 18.015625 
L 9.28125 47.703125 
L 2.6875 47.703125 
L 2.6875 54.6875 
L 9.28125 54.6875 
L 9.28125 70.21875 
z
" id="BitstreamVeraSans-Roman-74"/>
       <path d="M 34.28125 27.484375 
Q 23.390625 27.484375 19.1875 25 
Q 14.984375 22.515625 14.984375 16.5 
Q 14.984375 11.71875 18.140625 8.90625 
Q 21.296875 6.109375 26.703125 6.109375 
Q 34.1875 6.109375 38.703125 11.40625 
Q 43.21875 16.703125 43.21875 25.484375 
L 43.21875 27.484375 
z
M 52.203125 31.203125 
L 52.203125 0 
L 43.21875 0 
L 43.21875 8.296875 
Q 40.140625 3.328125 35.546875 0.953125 
Q 30.953125 -1.421875 24.3125 -1.421875 
Q 15.921875 -1.421875 10.953125 3.296875 
Q 6 8.015625 6 15.921875 
Q 6 25.140625 12.171875 29.828125 
Q 18.359375 34.515625 30.609375 34.515625 
L 43.21875 34.515625 
L 43.21875 35.40625 
Q 43.21875 41.609375 39.140625 45 
Q 35.0625 48.390625 27.6875 48.390625 
Q 23 48.390625 18.546875 47.265625 
Q 14.109375 46.140625 10.015625 43.890625 
L 10.015625 52.203125 
Q 14.9375 54.109375 19.578125 55.046875 
Q 24.21875 56 28.609375 56 
Q 40.484375 56 46.34375 49.84375 
Q 52.203125 43.703125 52.203125 31.203125 
" id="BitstreamVeraSans-Roman-61"/>
       <path d="M 44.28125 53.078125 
L 44.28125 44.578125 
Q 40.484375 46.53125 36.375 47.5 
Q 32.28125 48.484375 27.875 48.484375 
Q 21.1875 48.484375 17.84375 46.4375 
Q 14.5 44.390625 14.5 40.28125 
Q 14.5 37.15625 16.890625 35.375 
Q 19.28125 33.59375 26.515625 31.984375 
L 29.59375 31.296875 
Q 39.15625 29.25 43.1875 25.515625 
Q 47.21875 21.78125 47.21875 15.09375 
Q 47.21875 7.46875 41.1875 3.015625 
Q 35.15625 -1.421875 24.609375 -1.421875 
Q 20.21875 -1.421875 15.453125 -0.5625 
Q 10.6875 0.296875 5.421875 2 
L 5.421875 11.28125 
Q 10.40625 8.6875 15.234375 7.390625 
Q 20.0625 6.109375 24.8125 6.109375 
Q 31.15625 6.109375 34.5625 8.28125 
Q 37.984375 10.453125 37.984375 14.40625 
Q 37.984375 18.0625 35.515625 20.015625 
Q 33.0625 21.96875 24.703125 23.78125 
L 21.578125 24.515625 
Q 13.234375 26.265625 9.515625 29.90625 
Q 5.8125 33.546875 5.8125 39.890625 
Q 5.8125 47.609375 11.28125 51.796875 
Q 16.75 56 26.8125 56 
Q 31.78125 56 36.171875 55.265625 
Q 40.578125 54.546875 44.28125 53.078125 
" id="BitstreamVeraSans-Roman-73"/>
       <path d="M 9.8125 72.90625 
L 19.671875 72.90625 
L 19.671875 0 
L 9.8125 0 
z
" id="BitstreamVeraSans-Roman-49"/>
       <path d="M 48.6875 27.296875 
Q 48.6875 37.203125 44.609375 42.84375 
Q 40.53125 48.484375 33.40625 48.484375 
Q 26.265625 48.484375 22.1875 42.84375 
Q 18.109375 37.203125 18.109375 27.296875 
Q 18.109375 17.390625 22.1875 11.75 
Q 26.265625 6.109375 33.40625 6.109375 
Q 40.53125 6.109375 44.609375 11.75 
Q 48.6875 17.390625 48.6875 27.296875 
M 18.109375 46.390625 
Q 20.953125 51.265625 25.265625 53.625 
Q 29.59375 56 35.59375 56 
Q 45.5625 56 51.78125 48.09375 
Q 58.015625 40.1875 58.015625 27.296875 
Q 58.015625 14.40625 51.78125 6.484375 
Q 45.5625 -1.421875 35.59375 -1.421875 
Q 29.59375 -1.421875 25.265625 0.953125 
Q 20.953125 3.328125 18.109375 8.203125 
L 18.109375 0 
L 9.078125 0 
L 9.078125 75.984375 
L 18.109375 75.984375 
z
" id="BitstreamVeraSans-Roman-62"/>
      </defs>
      <g transform="translate(29.4353125 319.034428571)scale(0.16 -0.16)">
       <use xlink:href="#BitstreamVeraSans-Roman-53"/>
       <use x="63.4765625" xlink:href="#BitstreamVeraSans-Roman-65"/>
       <use x="125.0" xlink:href="#BitstreamVeraSans-Roman-76"/>
       <use x="184.1796875" xlink:href="#BitstreamVeraSans-Roman-65"/>
       <use x="245.703125" xlink:href="#BitstreamVeraSans-Roman-6e"/>
       <use x="309.08203125" xlink:href="#BitstreamVeraSans-Roman-20"/>
       <use x="340.869140625" xlink:href="#BitstreamVeraSans-Roman-59"/>
       <use x="401.75" xlink:href="#BitstreamVeraSans-Roman-65"/>
       <use x="463.2734375" xlink:href="#BitstreamVeraSans-Roman-61"/>
       <use x="524.552734375" xlink:href="#BitstreamVeraSans-Roman-72"/>
       <use x="565.666015625" xlink:href="#BitstreamVeraSans-Roman-73"/>
       <use x="617.765625" xlink:href="#BitstreamVeraSans-Roman-20"/>
       <use x="649.552734375" xlink:href="#BitstreamVeraSans-Roman-49"/>
       <use x="679.044921875" xlink:href="#BitstreamVeraSans-Roman-6e"/>
       <use x="742.423828125" xlink:href="#BitstreamVeraSans-Roman-20"/>
       <use x="774.2109375" xlink:href="#BitstreamVeraSans-Roman-54"/>
       <use x="835.248046875" xlink:href="#BitstreamVeraSans-Roman-69"/>
       <use x="863.03125" xlink:href="#BitstreamVeraSans-Roman-62"/>
       <use x="926.5078125" xlink:href="#BitstreamVeraSans-Roman-65"/>
       <use x="988.03125" xlink:href="#BitstreamVeraSans-Roman-74"/>
      </g>
     </g>
    </g>
    <g id="ytick_2">
     <g id="text_2">
      <!-- Dollar Days -->
      <defs>
       <path d="M 19.671875 64.796875 
L 19.671875 8.109375 
L 31.59375 8.109375 
Q 46.6875 8.109375 53.6875 14.9375 
Q 60.6875 21.78125 60.6875 36.53125 
Q 60.6875 51.171875 53.6875 57.984375 
Q 46.6875 64.796875 31.59375 64.796875 
z
M 9.8125 72.90625 
L 30.078125 72.90625 
Q 51.265625 72.90625 61.171875 64.09375 
Q 71.09375 55.28125 71.09375 36.53125 
Q 71.09375 17.671875 61.125 8.828125 
Q 51.171875 0 30.078125 0 
L 9.8125 0 
z
" id="BitstreamVeraSans-Roman-44"/>
       <path d="M 9.421875 75.984375 
L 18.40625 75.984375 
L 18.40625 0 
L 9.421875 0 
z
" id="BitstreamVeraSans-Roman-6c"/>
       <path d="M 30.609375 48.390625 
Q 23.390625 48.390625 19.1875 42.75 
Q 14.984375 37.109375 14.984375 27.296875 
Q 14.984375 17.484375 19.15625 11.84375 
Q 23.34375 6.203125 30.609375 6.203125 
Q 37.796875 6.203125 41.984375 11.859375 
Q 46.1875 17.53125 46.1875 27.296875 
Q 46.1875 37.015625 41.984375 42.703125 
Q 37.796875 48.390625 30.609375 48.390625 
M 30.609375 56 
Q 42.328125 56 49.015625 48.375 
Q 55.71875 40.765625 55.71875 27.296875 
Q 55.71875 13.875 49.015625 6.21875 
Q 42.328125 -1.421875 30.609375 -1.421875 
Q 18.84375 -1.421875 12.171875 6.21875 
Q 5.515625 13.875 5.515625 27.296875 
Q 5.515625 40.765625 12.171875 48.375 
Q 18.84375 56 30.609375 56 
" id="BitstreamVeraSans-Roman-6f"/>
       <path d="M 32.171875 -5.078125 
Q 28.375 -14.84375 24.75 -17.8125 
Q 21.140625 -20.796875 15.09375 -20.796875 
L 7.90625 -20.796875 
L 7.90625 -13.28125 
L 13.1875 -13.28125 
Q 16.890625 -13.28125 18.9375 -11.515625 
Q 21 -9.765625 23.484375 -3.21875 
L 25.09375 0.875 
L 2.984375 54.6875 
L 12.5 54.6875 
L 29.59375 11.921875 
L 46.6875 54.6875 
L 56.203125 54.6875 
z
" id="BitstreamVeraSans-Roman-79"/>
      </defs>
      <g transform="translate(101.3978125 296.529285714)scale(0.16 -0.16)">
       <use xlink:href="#BitstreamVeraSans-Roman-44"/>
       <use x="77.001953125" xlink:href="#BitstreamVeraSans-Roman-6f"/>
       <use x="138.18359375" xlink:href="#BitstreamVeraSans-Roman-6c"/>
       <use x="165.966796875" xlink:href="#BitstreamVeraSans-Roman-6c"/>
       <use x="193.75" xlink:href="#BitstreamVeraSans-Roman-61"/>
       <use x="255.029296875" xlink:href="#BitstreamVeraSans-Roman-72"/>
       <use x="296.142578125" xlink:href="#BitstreamVeraSans-Roman-20"/>
       <use x="327.9296875" xlink:href="#BitstreamVeraSans-Roman-44"/>
       <use x="404.931640625" xlink:href="#BitstreamVeraSans-Roman-61"/>
       <use x="466.2109375" xlink:href="#BitstreamVeraSans-Roman-79"/>
       <use x="525.390625" xlink:href="#BitstreamVeraSans-Roman-73"/>
      </g>
     </g>
    </g>
    <g id="ytick_3">
     <g id="text_3">
      <!-- Up The Hill Backwards -->
      <defs>
       <path d="M 18.109375 8.203125 
L 18.109375 -20.796875 
L 9.078125 -20.796875 
L 9.078125 54.6875 
L 18.109375 54.6875 
L 18.109375 46.390625 
Q 20.953125 51.265625 25.265625 53.625 
Q 29.59375 56 35.59375 56 
Q 45.5625 56 51.78125 48.09375 
Q 58.015625 40.1875 58.015625 27.296875 
Q 58.015625 14.40625 51.78125 6.484375 
Q 45.5625 -1.421875 35.59375 -1.421875 
Q 29.59375 -1.421875 25.265625 0.953125 
Q 20.953125 3.328125 18.109375 8.203125 
M 48.6875 27.296875 
Q 48.6875 37.203125 44.609375 42.84375 
Q 40.53125 48.484375 33.40625 48.484375 
Q 26.265625 48.484375 22.1875 42.84375 
Q 18.109375 37.203125 18.109375 27.296875 
Q 18.109375 17.390625 22.1875 11.75 
Q 26.265625 6.109375 33.40625 6.109375 
Q 40.53125 6.109375 44.609375 11.75 
Q 48.6875 17.390625 48.6875 27.296875 
" id="BitstreamVeraSans-Roman-70"/>
       <path d="M 54.890625 33.015625 
L 54.890625 0 
L 45.90625 0 
L 45.90625 32.71875 
Q 45.90625 40.484375 42.875 44.328125 
Q 39.84375 48.1875 33.796875 48.1875 
Q 26.515625 48.1875 22.3125 43.546875 
Q 18.109375 38.921875 18.109375 30.90625 
L 18.109375 0 
L 9.078125 0 
L 9.078125 75.984375 
L 18.109375 75.984375 
L 18.109375 46.1875 
Q 21.34375 51.125 25.703125 53.5625 
Q 30.078125 56 35.796875 56 
Q 45.21875 56 50.046875 50.171875 
Q 54.890625 44.34375 54.890625 33.015625 
" id="BitstreamVeraSans-Roman-68"/>
       <path d="M 9.078125 75.984375 
L 18.109375 75.984375 
L 18.109375 31.109375 
L 44.921875 54.6875 
L 56.390625 54.6875 
L 27.390625 29.109375 
L 57.625 0 
L 45.90625 0 
L 18.109375 26.703125 
L 18.109375 0 
L 9.078125 0 
z
" id="BitstreamVeraSans-Roman-6b"/>
       <path d="M 19.671875 34.8125 
L 19.671875 8.109375 
L 35.5 8.109375 
Q 43.453125 8.109375 47.28125 11.40625 
Q 51.125 14.703125 51.125 21.484375 
Q 51.125 28.328125 47.28125 31.5625 
Q 43.453125 34.8125 35.5 34.8125 
z
M 19.671875 64.796875 
L 19.671875 42.828125 
L 34.28125 42.828125 
Q 41.5 42.828125 45.03125 45.53125 
Q 48.578125 48.25 48.578125 53.8125 
Q 48.578125 59.328125 45.03125 62.0625 
Q 41.5 64.796875 34.28125 64.796875 
z
M 9.8125 72.90625 
L 35.015625 72.90625 
Q 46.296875 72.90625 52.390625 68.21875 
Q 58.5 63.53125 58.5 54.890625 
Q 58.5 48.1875 55.375 44.234375 
Q 52.25 40.28125 46.1875 39.3125 
Q 53.46875 37.75 57.5 32.78125 
Q 61.53125 27.828125 61.53125 20.40625 
Q 61.53125 10.640625 54.890625 5.3125 
Q 48.25 0 35.984375 0 
L 9.8125 0 
z
" id="BitstreamVeraSans-Roman-42"/>
       <path d="M 45.40625 46.390625 
L 45.40625 75.984375 
L 54.390625 75.984375 
L 54.390625 0 
L 45.40625 0 
L 45.40625 8.203125 
Q 42.578125 3.328125 38.25 0.953125 
Q 33.9375 -1.421875 27.875 -1.421875 
Q 17.96875 -1.421875 11.734375 6.484375 
Q 5.515625 14.40625 5.515625 27.296875 
Q 5.515625 40.1875 11.734375 48.09375 
Q 17.96875 56 27.875 56 
Q 33.9375 56 38.25 53.625 
Q 42.578125 51.265625 45.40625 46.390625 
M 14.796875 27.296875 
Q 14.796875 17.390625 18.875 11.75 
Q 22.953125 6.109375 30.078125 6.109375 
Q 37.203125 6.109375 41.296875 11.75 
Q 45.40625 17.390625 45.40625 27.296875 
Q 45.40625 37.203125 41.296875 42.84375 
Q 37.203125 48.484375 30.078125 48.484375 
Q 22.953125 48.484375 18.875 42.84375 
Q 14.796875 37.203125 14.796875 27.296875 
" id="BitstreamVeraSans-Roman-64"/>
       <path d="M 4.203125 54.6875 
L 13.1875 54.6875 
L 24.421875 12.015625 
L 35.59375 54.6875 
L 46.1875 54.6875 
L 57.421875 12.015625 
L 68.609375 54.6875 
L 77.59375 54.6875 
L 63.28125 0 
L 52.6875 0 
L 40.921875 44.828125 
L 29.109375 0 
L 18.5 0 
z
" id="BitstreamVeraSans-Roman-77"/>
       <path d="M 8.6875 72.90625 
L 18.609375 72.90625 
L 18.609375 28.609375 
Q 18.609375 16.890625 22.84375 11.734375 
Q 27.09375 6.59375 36.625 6.59375 
Q 46.09375 6.59375 50.34375 11.734375 
Q 54.59375 16.890625 54.59375 28.609375 
L 54.59375 72.90625 
L 64.5 72.90625 
L 64.5 27.390625 
Q 64.5 13.140625 57.4375 5.859375 
Q 50.390625 -1.421875 36.625 -1.421875 
Q 22.796875 -1.421875 15.734375 5.859375 
Q 8.6875 13.140625 8.6875 27.390625 
z
" id="BitstreamVeraSans-Roman-55"/>
       <path d="M 48.78125 52.59375 
L 48.78125 44.1875 
Q 44.96875 46.296875 41.140625 47.34375 
Q 37.3125 48.390625 33.40625 48.390625 
Q 24.65625 48.390625 19.8125 42.84375 
Q 14.984375 37.3125 14.984375 27.296875 
Q 14.984375 17.28125 19.8125 11.734375 
Q 24.65625 6.203125 33.40625 6.203125 
Q 37.3125 6.203125 41.140625 7.25 
Q 44.96875 8.296875 48.78125 10.40625 
L 48.78125 2.09375 
Q 45.015625 0.34375 40.984375 -0.53125 
Q 36.96875 -1.421875 32.421875 -1.421875 
Q 20.0625 -1.421875 12.78125 6.34375 
Q 5.515625 14.109375 5.515625 27.296875 
Q 5.515625 40.671875 12.859375 48.328125 
Q 20.21875 56 33.015625 56 
Q 37.15625 56 41.109375 55.140625 
Q 45.0625 54.296875 48.78125 52.59375 
" id="BitstreamVeraSans-Roman-63"/>
       <path d="M 9.8125 72.90625 
L 19.671875 72.90625 
L 19.671875 43.015625 
L 55.515625 43.015625 
L 55.515625 72.90625 
L 65.375 72.90625 
L 65.375 0 
L 55.515625 0 
L 55.515625 34.71875 
L 19.671875 34.71875 
L 19.671875 0 
L 9.8125 0 
z
" id="BitstreamVeraSans-Roman-48"/>
      </defs>
      <g transform="translate(14.7453125 274.024142857)scale(0.16 -0.16)">
       <use xlink:href="#BitstreamVeraSans-Roman-55"/>
       <use x="73.193359375" xlink:href="#BitstreamVeraSans-Roman-70"/>
       <use x="136.669921875" xlink:href="#BitstreamVeraSans-Roman-20"/>
       <use x="168.45703125" xlink:href="#BitstreamVeraSans-Roman-54"/>
       <use x="229.541015625" xlink:href="#BitstreamVeraSans-Roman-68"/>
       <use x="292.919921875" xlink:href="#BitstreamVeraSans-Roman-65"/>
       <use x="354.443359375" xlink:href="#BitstreamVeraSans-Roman-20"/>
       <use x="386.23046875" xlink:href="#BitstreamVeraSans-Roman-48"/>
       <use x="461.42578125" xlink:href="#BitstreamVeraSans-Roman-69"/>
       <use x="489.208984375" xlink:href="#BitstreamVeraSans-Roman-6c"/>
       <use x="516.9921875" xlink:href="#BitstreamVeraSans-Roman-6c"/>
       <use x="544.775390625" xlink:href="#BitstreamVeraSans-Roman-20"/>
       <use x="576.5625" xlink:href="#BitstreamVeraSans-Roman-42"/>
       <use x="645.166015625" xlink:href="#BitstreamVeraSans-Roman-61"/>
       <use x="706.4453125" xlink:href="#BitstreamVeraSans-Roman-63"/>
       <use x="761.42578125" xlink:href="#BitstreamVeraSans-Roman-6b"/>
       <use x="819.3359375" xlink:href="#BitstreamVeraSans-Roman-77"/>
       <use x="901.123046875" xlink:href="#BitstreamVeraSans-Roman-61"/>
       <use x="962.40234375" xlink:href="#BitstreamVeraSans-Roman-72"/>
       <use x="1003.5" xlink:href="#BitstreamVeraSans-Roman-64"/>
       <use x="1066.9765625" xlink:href="#BitstreamVeraSans-Roman-73"/>
      </g>
     </g>
    </g>
    <g id="ytick_4">
     <g id="text_4">
      <!-- TVC15 -->
      <defs>
       <path d="M 12.40625 8.296875 
L 28.515625 8.296875 
L 28.515625 63.921875 
L 10.984375 60.40625 
L 10.984375 69.390625 
L 28.421875 72.90625 
L 38.28125 72.90625 
L 38.28125 8.296875 
L 54.390625 8.296875 
L 54.390625 0 
L 12.40625 0 
z
" id="BitstreamVeraSans-Roman-31"/>
       <path d="M 64.40625 67.28125 
L 64.40625 56.890625 
Q 59.421875 61.53125 53.78125 63.8125 
Q 48.140625 66.109375 41.796875 66.109375 
Q 29.296875 66.109375 22.65625 58.46875 
Q 16.015625 50.828125 16.015625 36.375 
Q 16.015625 21.96875 22.65625 14.328125 
Q 29.296875 6.6875 41.796875 6.6875 
Q 48.140625 6.6875 53.78125 8.984375 
Q 59.421875 11.28125 64.40625 15.921875 
L 64.40625 5.609375 
Q 59.234375 2.09375 53.4375 0.328125 
Q 47.65625 -1.421875 41.21875 -1.421875 
Q 24.65625 -1.421875 15.125 8.703125 
Q 5.609375 18.84375 5.609375 36.375 
Q 5.609375 53.953125 15.125 64.078125 
Q 24.65625 74.21875 41.21875 74.21875 
Q 47.75 74.21875 53.53125 72.484375 
Q 59.328125 70.75 64.40625 67.28125 
" id="BitstreamVeraSans-Roman-43"/>
       <path d="M 28.609375 0 
L 0.78125 72.90625 
L 11.078125 72.90625 
L 34.1875 11.53125 
L 57.328125 72.90625 
L 67.578125 72.90625 
L 39.796875 0 
z
" id="BitstreamVeraSans-Roman-56"/>
       <path d="M 10.796875 72.90625 
L 49.515625 72.90625 
L 49.515625 64.59375 
L 19.828125 64.59375 
L 19.828125 46.734375 
Q 21.96875 47.46875 24.109375 47.828125 
Q 26.265625 48.1875 28.421875 48.1875 
Q 40.625 48.1875 47.75 41.5 
Q 54.890625 34.8125 54.890625 23.390625 
Q 54.890625 11.625 47.5625 5.09375 
Q 40.234375 -1.421875 26.90625 -1.421875 
Q 22.3125 -1.421875 17.546875 -0.640625 
Q 12.796875 0.140625 7.71875 1.703125 
L 7.71875 11.625 
Q 12.109375 9.234375 16.796875 8.0625 
Q 21.484375 6.890625 26.703125 6.890625 
Q 35.15625 6.890625 40.078125 11.328125 
Q 45.015625 15.765625 45.015625 23.390625 
Q 45.015625 31 40.078125 35.4375 
Q 35.15625 39.890625 26.703125 39.890625 
Q 22.75 39.890625 18.8125 39.015625 
Q 14.890625 38.140625 10.796875 36.28125 
z
" id="BitstreamVeraSans-Roman-35"/>
      </defs>
      <g transform="translate(141.5453125 251.519)scale(0.16 -0.16)">
       <use xlink:href="#BitstreamVeraSans-Roman-54"/>
       <use x="61.083984375" xlink:href="#BitstreamVeraSans-Roman-56"/>
       <use x="129.4921875" xlink:href="#BitstreamVeraSans-Roman-43"/>
       <use x="199.31640625" xlink:href="#BitstreamVeraSans-Roman-31"/>
       <use x="262.939453125" xlink:href="#BitstreamVeraSans-Roman-35"/>
      </g>
     </g>
    </g>
    <g id="ytick_5">
     <g id="text_5">
      <!-- Nite Flights -->
      <defs>
       <path d="M 9.8125 72.90625 
L 51.703125 72.90625 
L 51.703125 64.59375 
L 19.671875 64.59375 
L 19.671875 43.109375 
L 48.578125 43.109375 
L 48.578125 34.8125 
L 19.671875 34.8125 
L 19.671875 0 
L 9.8125 0 
z
" id="BitstreamVeraSans-Roman-46"/>
       <path d="M 9.8125 72.90625 
L 23.09375 72.90625 
L 55.421875 11.921875 
L 55.421875 72.90625 
L 64.984375 72.90625 
L 64.984375 0 
L 51.703125 0 
L 19.390625 60.984375 
L 19.390625 0 
L 9.8125 0 
z
" id="BitstreamVeraSans-Roman-4e"/>
       <path d="M 45.40625 27.984375 
Q 45.40625 37.75 41.375 43.109375 
Q 37.359375 48.484375 30.078125 48.484375 
Q 22.859375 48.484375 18.828125 43.109375 
Q 14.796875 37.75 14.796875 27.984375 
Q 14.796875 18.265625 18.828125 12.890625 
Q 22.859375 7.515625 30.078125 7.515625 
Q 37.359375 7.515625 41.375 12.890625 
Q 45.40625 18.265625 45.40625 27.984375 
M 54.390625 6.78125 
Q 54.390625 -7.171875 48.1875 -13.984375 
Q 42 -20.796875 29.203125 -20.796875 
Q 24.46875 -20.796875 20.265625 -20.09375 
Q 16.0625 -19.390625 12.109375 -17.921875 
L 12.109375 -9.1875 
Q 16.0625 -11.328125 19.921875 -12.34375 
Q 23.78125 -13.375 27.78125 -13.375 
Q 36.625 -13.375 41.015625 -8.765625 
Q 45.40625 -4.15625 45.40625 5.171875 
L 45.40625 9.625 
Q 42.625 4.78125 38.28125 2.390625 
Q 33.9375 0 27.875 0 
Q 17.828125 0 11.671875 7.65625 
Q 5.515625 15.328125 5.515625 27.984375 
Q 5.515625 40.671875 11.671875 48.328125 
Q 17.828125 56 27.875 56 
Q 33.9375 56 38.28125 53.609375 
Q 42.625 51.21875 45.40625 46.390625 
L 45.40625 54.6875 
L 54.390625 54.6875 
z
" id="BitstreamVeraSans-Roman-67"/>
      </defs>
      <g transform="translate(103.1803125 229.013857143)scale(0.16 -0.16)">
       <use xlink:href="#BitstreamVeraSans-Roman-4e"/>
       <use x="74.8046875" xlink:href="#BitstreamVeraSans-Roman-69"/>
       <use x="102.587890625" xlink:href="#BitstreamVeraSans-Roman-74"/>
       <use x="141.796875" xlink:href="#BitstreamVeraSans-Roman-65"/>
       <use x="203.3203125" xlink:href="#BitstreamVeraSans-Roman-20"/>
       <use x="235.107421875" xlink:href="#BitstreamVeraSans-Roman-46"/>
       <use x="292.626953125" xlink:href="#BitstreamVeraSans-Roman-6c"/>
       <use x="320.41015625" xlink:href="#BitstreamVeraSans-Roman-69"/>
       <use x="348.193359375" xlink:href="#BitstreamVeraSans-Roman-67"/>
       <use x="411.669921875" xlink:href="#BitstreamVeraSans-Roman-68"/>
       <use x="475.048828125" xlink:href="#BitstreamVeraSans-Roman-74"/>
       <use x="514.2578125" xlink:href="#BitstreamVeraSans-Roman-73"/>
      </g>
     </g>
    </g>
    <g id="ytick_6">
     <g id="text_6">
      <!-- Tonight -->
      <g transform="translate(133.1203125 206.508714286)scale(0.16 -0.16)">
       <use xlink:href="#BitstreamVeraSans-Roman-54"/>
       <use x="60.818359375" xlink:href="#BitstreamVeraSans-Roman-6f"/>
       <use x="122.0" xlink:href="#BitstreamVeraSans-Roman-6e"/>
       <use x="185.37890625" xlink:href="#BitstreamVeraSans-Roman-69"/>
       <use x="213.162109375" xlink:href="#BitstreamVeraSans-Roman-67"/>
       <use x="276.638671875" xlink:href="#BitstreamVeraSans-Roman-68"/>
       <use x="340.017578125" xlink:href="#BitstreamVeraSans-Roman-74"/>
      </g>
     </g>
    </g>
    <g id="ytick_7">
     <g id="text_7">
      <!-- The Next Day -->
      <defs>
       <path d="M 54.890625 54.6875 
L 35.109375 28.078125 
L 55.90625 0 
L 45.3125 0 
L 29.390625 21.484375 
L 13.484375 0 
L 2.875 0 
L 24.125 28.609375 
L 4.6875 54.6875 
L 15.28125 54.6875 
L 29.78125 35.203125 
L 44.28125 54.6875 
z
" id="BitstreamVeraSans-Roman-78"/>
      </defs>
      <g transform="translate(84.7178125 184.003571429)scale(0.16 -0.16)">
       <use xlink:href="#BitstreamVeraSans-Roman-54"/>
       <use x="61.083984375" xlink:href="#BitstreamVeraSans-Roman-68"/>
       <use x="124.462890625" xlink:href="#BitstreamVeraSans-Roman-65"/>
       <use x="185.986328125" xlink:href="#BitstreamVeraSans-Roman-20"/>
       <use x="217.7734375" xlink:href="#BitstreamVeraSans-Roman-4e"/>
       <use x="292.578125" xlink:href="#BitstreamVeraSans-Roman-65"/>
       <use x="354.0859375" xlink:href="#BitstreamVeraSans-Roman-78"/>
       <use x="413.265625" xlink:href="#BitstreamVeraSans-Roman-74"/>
       <use x="452.474609375" xlink:href="#BitstreamVeraSans-Roman-20"/>
       <use x="484.26171875" xlink:href="#BitstreamVeraSans-Roman-44"/>
       <use x="561.263671875" xlink:href="#BitstreamVeraSans-Roman-61"/>
       <use x="622.54296875" xlink:href="#BitstreamVeraSans-Roman-79"/>
      </g>
     </g>
    </g>
    <g id="ytick_8">
     <g id="text_8">
      <!-- Seven -->
      <g transform="translate(144.3378125 161.498428571)scale(0.16 -0.16)">
       <use xlink:href="#BitstreamVeraSans-Roman-53"/>
       <use x="63.4765625" xlink:href="#BitstreamVeraSans-Roman-65"/>
       <use x="125.0" xlink:href="#BitstreamVeraSans-Roman-76"/>
       <use x="184.1796875" xlink:href="#BitstreamVeraSans-Roman-65"/>
       <use x="245.703125" xlink:href="#BitstreamVeraSans-Roman-6e"/>
      </g>
     </g>
    </g>
    <g id="ytick_9">
     <g id="text_9">
      <!-- All The Madmen -->
      <defs>
       <path d="M 52 44.1875 
Q 55.375 50.25 60.0625 53.125 
Q 64.75 56 71.09375 56 
Q 79.640625 56 84.28125 50.015625 
Q 88.921875 44.046875 88.921875 33.015625 
L 88.921875 0 
L 79.890625 0 
L 79.890625 32.71875 
Q 79.890625 40.578125 77.09375 44.375 
Q 74.3125 48.1875 68.609375 48.1875 
Q 61.625 48.1875 57.5625 43.546875 
Q 53.515625 38.921875 53.515625 30.90625 
L 53.515625 0 
L 44.484375 0 
L 44.484375 32.71875 
Q 44.484375 40.625 41.703125 44.40625 
Q 38.921875 48.1875 33.109375 48.1875 
Q 26.21875 48.1875 22.15625 43.53125 
Q 18.109375 38.875 18.109375 30.90625 
L 18.109375 0 
L 9.078125 0 
L 9.078125 54.6875 
L 18.109375 54.6875 
L 18.109375 46.1875 
Q 21.1875 51.21875 25.484375 53.609375 
Q 29.78125 56 35.6875 56 
Q 41.65625 56 45.828125 52.96875 
Q 50 49.953125 52 44.1875 
" id="BitstreamVeraSans-Roman-6d"/>
       <path d="M 9.8125 72.90625 
L 24.515625 72.90625 
L 43.109375 23.296875 
L 61.8125 72.90625 
L 76.515625 72.90625 
L 76.515625 0 
L 66.890625 0 
L 66.890625 64.015625 
L 48.09375 14.015625 
L 38.1875 14.015625 
L 19.390625 64.015625 
L 19.390625 0 
L 9.8125 0 
z
" id="BitstreamVeraSans-Roman-4d"/>
       <path d="M 34.1875 63.1875 
L 20.796875 26.90625 
L 47.609375 26.90625 
z
M 28.609375 72.90625 
L 39.796875 72.90625 
L 67.578125 0 
L 57.328125 0 
L 50.6875 18.703125 
L 17.828125 18.703125 
L 11.1875 0 
L 0.78125 0 
z
" id="BitstreamVeraSans-Roman-41"/>
      </defs>
      <g transform="translate(64.6953125 138.993285714)scale(0.16 -0.16)">
       <use xlink:href="#BitstreamVeraSans-Roman-41"/>
       <use x="68.408203125" xlink:href="#BitstreamVeraSans-Roman-6c"/>
       <use x="96.19140625" xlink:href="#BitstreamVeraSans-Roman-6c"/>
       <use x="123.974609375" xlink:href="#BitstreamVeraSans-Roman-20"/>
       <use x="155.76171875" xlink:href="#BitstreamVeraSans-Roman-54"/>
       <use x="216.845703125" xlink:href="#BitstreamVeraSans-Roman-68"/>
       <use x="280.224609375" xlink:href="#BitstreamVeraSans-Roman-65"/>
       <use x="341.748046875" xlink:href="#BitstreamVeraSans-Roman-20"/>
       <use x="373.53515625" xlink:href="#BitstreamVeraSans-Roman-4d"/>
       <use x="459.814453125" xlink:href="#BitstreamVeraSans-Roman-61"/>
       <use x="521.09375" xlink:href="#BitstreamVeraSans-Roman-64"/>
       <use x="584.5703125" xlink:href="#BitstreamVeraSans-Roman-6d"/>
       <use x="681.982421875" xlink:href="#BitstreamVeraSans-Roman-65"/>
       <use x="743.505859375" xlink:href="#BitstreamVeraSans-Roman-6e"/>
      </g>
     </g>
    </g>
    <g id="ytick_10">
     <g id="text_10">
      <!-- The Supermen -->
      <defs>
       <path d="M 8.5 21.578125 
L 8.5 54.6875 
L 17.484375 54.6875 
L 17.484375 21.921875 
Q 17.484375 14.15625 20.5 10.265625 
Q 23.53125 6.390625 29.59375 6.390625 
Q 36.859375 6.390625 41.078125 11.03125 
Q 45.3125 15.671875 45.3125 23.6875 
L 45.3125 54.6875 
L 54.296875 54.6875 
L 54.296875 0 
L 45.3125 0 
L 45.3125 8.40625 
Q 42.046875 3.421875 37.71875 1 
Q 33.40625 -1.421875 27.6875 -1.421875 
Q 18.265625 -1.421875 13.375 4.4375 
Q 8.5 10.296875 8.5 21.578125 
" id="BitstreamVeraSans-Roman-75"/>
      </defs>
      <g transform="translate(76.5078125 116.488142857)scale(0.16 -0.16)">
       <use xlink:href="#BitstreamVeraSans-Roman-54"/>
       <use x="61.083984375" xlink:href="#BitstreamVeraSans-Roman-68"/>
       <use x="124.462890625" xlink:href="#BitstreamVeraSans-Roman-65"/>
       <use x="185.986328125" xlink:href="#BitstreamVeraSans-Roman-20"/>
       <use x="217.7734375" xlink:href="#BitstreamVeraSans-Roman-53"/>
       <use x="281.25" xlink:href="#BitstreamVeraSans-Roman-75"/>
       <use x="344.62890625" xlink:href="#BitstreamVeraSans-Roman-70"/>
       <use x="408.10546875" xlink:href="#BitstreamVeraSans-Roman-65"/>
       <use x="469.62890625" xlink:href="#BitstreamVeraSans-Roman-72"/>
       <use x="510.7265625" xlink:href="#BitstreamVeraSans-Roman-6d"/>
       <use x="608.138671875" xlink:href="#BitstreamVeraSans-Roman-65"/>
       <use x="669.662109375" xlink:href="#BitstreamVeraSans-Roman-6e"/>
      </g>
     </g>
    </g>
    <g id="ytick_11">
     <g id="text_11">
      <!-- Leon Takes Us Outside -->
      <defs>
       <path d="M 39.40625 66.21875 
Q 28.65625 66.21875 22.328125 58.203125 
Q 16.015625 50.203125 16.015625 36.375 
Q 16.015625 22.609375 22.328125 14.59375 
Q 28.65625 6.59375 39.40625 6.59375 
Q 50.140625 6.59375 56.421875 14.59375 
Q 62.703125 22.609375 62.703125 36.375 
Q 62.703125 50.203125 56.421875 58.203125 
Q 50.140625 66.21875 39.40625 66.21875 
M 39.40625 74.21875 
Q 54.734375 74.21875 63.90625 63.9375 
Q 73.09375 53.65625 73.09375 36.375 
Q 73.09375 19.140625 63.90625 8.859375 
Q 54.734375 -1.421875 39.40625 -1.421875 
Q 24.03125 -1.421875 14.8125 8.828125 
Q 5.609375 19.09375 5.609375 36.375 
Q 5.609375 53.65625 14.8125 63.9375 
Q 24.03125 74.21875 39.40625 74.21875 
" id="BitstreamVeraSans-Roman-4f"/>
       <path d="M 9.8125 72.90625 
L 19.671875 72.90625 
L 19.671875 8.296875 
L 55.171875 8.296875 
L 55.171875 0 
L 9.8125 0 
z
" id="BitstreamVeraSans-Roman-4c"/>
      </defs>
      <g transform="translate(11.0428125 93.983)scale(0.16 -0.16)">
       <use xlink:href="#BitstreamVeraSans-Roman-4c"/>
       <use x="55.697265625" xlink:href="#BitstreamVeraSans-Roman-65"/>
       <use x="117.220703125" xlink:href="#BitstreamVeraSans-Roman-6f"/>
       <use x="178.40234375" xlink:href="#BitstreamVeraSans-Roman-6e"/>
       <use x="241.78125" xlink:href="#BitstreamVeraSans-Roman-20"/>
       <use x="273.568359375" xlink:href="#BitstreamVeraSans-Roman-54"/>
       <use x="334.40234375" xlink:href="#BitstreamVeraSans-Roman-61"/>
       <use x="395.681640625" xlink:href="#BitstreamVeraSans-Roman-6b"/>
       <use x="453.544921875" xlink:href="#BitstreamVeraSans-Roman-65"/>
       <use x="515.068359375" xlink:href="#BitstreamVeraSans-Roman-73"/>
       <use x="567.16796875" xlink:href="#BitstreamVeraSans-Roman-20"/>
       <use x="598.955078125" xlink:href="#BitstreamVeraSans-Roman-55"/>
       <use x="672.1484375" xlink:href="#BitstreamVeraSans-Roman-73"/>
       <use x="724.248046875" xlink:href="#BitstreamVeraSans-Roman-20"/>
       <use x="756.03515625" xlink:href="#BitstreamVeraSans-Roman-4f"/>
       <use x="834.74609375" xlink:href="#BitstreamVeraSans-Roman-75"/>
       <use x="898.125" xlink:href="#BitstreamVeraSans-Roman-74"/>
       <use x="937.333984375" xlink:href="#BitstreamVeraSans-Roman-73"/>
       <use x="989.43359375" xlink:href="#BitstreamVeraSans-Roman-69"/>
       <use x="1017.21679688" xlink:href="#BitstreamVeraSans-Roman-64"/>
       <use x="1080.69335938" xlink:href="#BitstreamVeraSans-Roman-65"/>
      </g>
     </g>
    </g>
    <g id="ytick_12">
     <g id="text_12">
      <!-- Days -->
      <g transform="translate(153.8653125 71.4778571429)scale(0.16 -0.16)">
       <use xlink:href="#BitstreamVeraSans-Roman-44"/>
       <use x="77.001953125" xlink:href="#BitstreamVeraSans-Roman-61"/>
       <use x="138.28125" xlink:href="#BitstreamVeraSans-Roman-79"/>
       <use x="197.4609375" xlink:href="#BitstreamVeraSans-Roman-73"/>
      </g>
     </g>
    </g>
    <g id="ytick_13">
     <g id="text_13">
      <!-- "Heroes" -->
      <defs>
       <path d="M 17.921875 72.90625 
L 17.921875 45.796875 
L 9.625 45.796875 
L 9.625 72.90625 
z
M 36.375 72.90625 
L 36.375 45.796875 
L 28.078125 45.796875 
L 28.078125 72.90625 
z
" id="BitstreamVeraSans-Roman-22"/>
      </defs>
      <g transform="translate(122.6553125 48.9727142857)scale(0.16 -0.16)">
       <use xlink:href="#BitstreamVeraSans-Roman-22"/>
       <use x="45.99609375" xlink:href="#BitstreamVeraSans-Roman-48"/>
       <use x="121.19140625" xlink:href="#BitstreamVeraSans-Roman-65"/>
       <use x="182.71484375" xlink:href="#BitstreamVeraSans-Roman-72"/>
       <use x="223.796875" xlink:href="#BitstreamVeraSans-Roman-6f"/>
       <use x="284.978515625" xlink:href="#BitstreamVeraSans-Roman-65"/>
       <use x="346.501953125" xlink:href="#BitstreamVeraSans-Roman-73"/>
       <use x="398.6015625" xlink:href="#BitstreamVeraSans-Roman-22"/>
      </g>
     </g>
    </g>
    <g id="ytick_14">
     <g id="text_14">
      <!-- African Night Flight -->
      <defs>
       <path d="M 37.109375 75.984375 
L 37.109375 68.5 
L 28.515625 68.5 
Q 23.6875 68.5 21.796875 66.546875 
Q 19.921875 64.59375 19.921875 59.515625 
L 19.921875 54.6875 
L 34.71875 54.6875 
L 34.71875 47.703125 
L 19.921875 47.703125 
L 19.921875 0 
L 10.890625 0 
L 10.890625 47.703125 
L 2.296875 47.703125 
L 2.296875 54.6875 
L 10.890625 54.6875 
L 10.890625 58.5 
Q 10.890625 67.625 15.140625 71.796875 
Q 19.390625 75.984375 28.609375 75.984375 
z
" id="BitstreamVeraSans-Roman-66"/>
      </defs>
      <g transform="translate(39.6428125 26.4675714286)scale(0.16 -0.16)">
       <use xlink:href="#BitstreamVeraSans-Roman-41"/>
       <use x="68.361328125" xlink:href="#BitstreamVeraSans-Roman-66"/>
       <use x="103.56640625" xlink:href="#BitstreamVeraSans-Roman-72"/>
       <use x="144.6796875" xlink:href="#BitstreamVeraSans-Roman-69"/>
       <use x="172.462890625" xlink:href="#BitstreamVeraSans-Roman-63"/>
       <use x="227.443359375" xlink:href="#BitstreamVeraSans-Roman-61"/>
       <use x="288.72265625" xlink:href="#BitstreamVeraSans-Roman-6e"/>
       <use x="352.1015625" xlink:href="#BitstreamVeraSans-Roman-20"/>
       <use x="383.888671875" xlink:href="#BitstreamVeraSans-Roman-4e"/>
       <use x="458.693359375" xlink:href="#BitstreamVeraSans-Roman-69"/>
       <use x="486.4765625" xlink:href="#BitstreamVeraSans-Roman-67"/>
       <use x="549.953125" xlink:href="#BitstreamVeraSans-Roman-68"/>
       <use x="613.33203125" xlink:href="#BitstreamVeraSans-Roman-74"/>
       <use x="652.541015625" xlink:href="#BitstreamVeraSans-Roman-20"/>
       <use x="684.328125" xlink:href="#BitstreamVeraSans-Roman-46"/>
       <use x="741.84765625" xlink:href="#BitstreamVeraSans-Roman-6c"/>
       <use x="769.630859375" xlink:href="#BitstreamVeraSans-Roman-69"/>
       <use x="797.4140625" xlink:href="#BitstreamVeraSans-Roman-67"/>
       <use x="860.890625" xlink:href="#BitstreamVeraSans-Roman-68"/>
       <use x="924.26953125" xlink:href="#BitstreamVeraSans-Roman-74"/>
      </g>
     </g>
    </g>
   </g>
   <g id="text_15">
    <!-- Grupo 4 -->
    <defs>
     <path d="M 59.515625 10.40625 
L 59.515625 29.984375 
L 43.40625 29.984375 
L 43.40625 38.09375 
L 69.28125 38.09375 
L 69.28125 6.78125 
Q 63.578125 2.734375 56.6875 0.65625 
Q 49.8125 -1.421875 42 -1.421875 
Q 24.90625 -1.421875 15.25 8.5625 
Q 5.609375 18.5625 5.609375 36.375 
Q 5.609375 54.25 15.25 64.234375 
Q 24.90625 74.21875 42 74.21875 
Q 49.125 74.21875 55.546875 72.453125 
Q 61.96875 70.703125 67.390625 67.28125 
L 67.390625 56.78125 
Q 61.921875 61.421875 55.765625 63.765625 
Q 49.609375 66.109375 42.828125 66.109375 
Q 29.4375 66.109375 22.71875 58.640625 
Q 16.015625 51.171875 16.015625 36.375 
Q 16.015625 21.625 22.71875 14.15625 
Q 29.4375 6.6875 42.828125 6.6875 
Q 48.046875 6.6875 52.140625 7.59375 
Q 56.25 8.5 59.515625 10.40625 
" id="BitstreamVeraSans-Roman-47"/>
     <path d="M 37.796875 64.3125 
L 12.890625 25.390625 
L 37.796875 25.390625 
z
M 35.203125 72.90625 
L 47.609375 72.90625 
L 47.609375 25.390625 
L 58.015625 25.390625 
L 58.015625 17.1875 
L 47.609375 17.1875 
L 47.609375 0 
L 37.796875 0 
L 37.796875 17.1875 
L 4.890625 17.1875 
L 4.890625 26.703125 
z
" id="BitstreamVeraSans-Roman-34"/>
    </defs>
    <g transform="translate(367.09484375 5.8)scale(0.12 -0.12)">
     <use xlink:href="#BitstreamVeraSans-Roman-47"/>
     <use x="77.490234375" xlink:href="#BitstreamVeraSans-Roman-72"/>
     <use x="118.603515625" xlink:href="#BitstreamVeraSans-Roman-75"/>
     <use x="181.982421875" xlink:href="#BitstreamVeraSans-Roman-70"/>
     <use x="245.458984375" xlink:href="#BitstreamVeraSans-Roman-6f"/>
     <use x="306.640625" xlink:href="#BitstreamVeraSans-Roman-20"/>
     <use x="338.427734375" xlink:href="#BitstreamVeraSans-Roman-34"/>
    </g>
   </g>
  </g>
 </g>
 <defs>
  <clipPath id="p25d604ea7f">
   <rect height="315.072" width="386.8446875" x="197.7953125" y="10.8"/>
  </clipPath>
 </defs>
</svg>
