<?xml version="1.0" encoding="utf-8" standalone="no"?>
<!DOCTYPE svg PUBLIC "-//W3C//DTD SVG 1.1//EN"
  "http://www.w3.org/Graphics/SVG/1.1/DTD/svg11.dtd">
<!-- Created with matplotlib (http://matplotlib.org/) -->
<svg height="631pt" version="1.1" viewBox="0 0 595 631" width="595pt" xmlns="http://www.w3.org/2000/svg" xmlns:xlink="http://www.w3.org/1999/xlink">
 <defs>
  <style type="text/css">
*{stroke-linecap:butt;stroke-linejoin:round;stroke-miterlimit:100000;}
  </style>
 </defs>
 <g id="figure_1">
  <g id="patch_1">
   <path d="M 0 631.26 
L 595.44 631.26 
L 595.44 0 
L 0 0 
z
" style="fill:#ffffff;"/>
  </g>
  <g id="axes_1">
   <g id="patch_2">
    <path d="M 282.254688 619.554507 
L 584.64 619.554507 
L 584.64 11.705493 
L 282.254688 11.705493 
z
" style="fill:#ffffff;"/>
   </g>
   <g id="LineCollection_1">
    <path clip-path="url(#p9d842df7f3)" d="M 282.254688 610.615551 
L 349.1372 610.615551 
L 349.1372 592.737639 
L 282.254688 592.737639 
" style="fill:none;stroke:#ff0000;stroke-width:2.0;"/>
    <path clip-path="url(#p9d842df7f3)" d="M 282.254688 574.859727 
L 356.361655 574.859727 
L 356.361655 556.981815 
L 282.254688 556.981815 
" style="fill:none;stroke:#ff0000;stroke-width:2.0;"/>
    <path clip-path="url(#p9d842df7f3)" d="M 282.254688 521.22599 
L 364.417426 521.22599 
L 364.417426 503.348078 
L 282.254688 503.348078 
" style="fill:none;stroke:#ff0000;stroke-width:2.0;"/>
    <path clip-path="url(#p9d842df7f3)" d="M 282.254688 539.103902 
L 375.76844 539.103902 
L 375.76844 512.287034 
L 364.417426 512.287034 
" style="fill:none;stroke:#ff0000;stroke-width:2.0;"/>
    <path clip-path="url(#p9d842df7f3)" d="M 356.361655 565.920771 
L 398.423633 565.920771 
L 398.423633 525.695468 
L 375.76844 525.695468 
" style="fill:none;stroke:#ff0000;stroke-width:2.0;"/>
    <path clip-path="url(#p9d842df7f3)" d="M 349.1372 601.676595 
L 401.626347 601.676595 
L 401.626347 545.80812 
L 398.423633 545.80812 
" style="fill:none;stroke:#ff0000;stroke-width:2.0;"/>
    <path clip-path="url(#p9d842df7f3)" d="M 282.254688 467.592254 
L 355.239863 467.592254 
L 355.239863 449.714341 
L 282.254688 449.714341 
" style="fill:none;stroke:#ff0000;stroke-width:2.0;"/>
    <path clip-path="url(#p9d842df7f3)" d="M 282.254688 485.470166 
L 358.851549 485.470166 
L 358.851549 458.653298 
L 355.239863 458.653298 
" style="fill:none;stroke:#ff0000;stroke-width:2.0;"/>
    <path clip-path="url(#p9d842df7f3)" d="M 282.254688 431.836429 
L 332.116049 431.836429 
L 332.116049 413.958517 
L 282.254688 413.958517 
" style="fill:none;stroke:#ff0000;stroke-width:2.0;"/>
    <path clip-path="url(#p9d842df7f3)" d="M 282.254688 396.080605 
L 374.252968 396.080605 
L 374.252968 378.202693 
L 282.254688 378.202693 
" style="fill:none;stroke:#ff0000;stroke-width:2.0;"/>
    <path clip-path="url(#p9d842df7f3)" d="M 332.116049 422.897473 
L 381.9163 422.897473 
L 381.9163 387.141649 
L 374.252968 387.141649 
" style="fill:none;stroke:#ff0000;stroke-width:2.0;"/>
    <path clip-path="url(#p9d842df7f3)" d="M 358.851549 472.061732 
L 417.07416 472.061732 
L 417.07416 405.019561 
L 381.9163 405.019561 
" style="fill:none;stroke:#ff0000;stroke-width:2.0;"/>
    <path clip-path="url(#p9d842df7f3)" d="M 401.626347 573.742357 
L 445.824212 573.742357 
L 445.824212 438.540646 
L 417.07416 438.540646 
" style="fill:none;stroke:#ff0000;stroke-width:2.0;"/>
    <path clip-path="url(#p9d842df7f3)" d="M 282.254688 360.32478 
L 347.946759 360.32478 
L 347.946759 342.446868 
L 282.254688 342.446868 
" style="fill:none;stroke:#ff0000;stroke-width:2.0;"/>
    <path clip-path="url(#p9d842df7f3)" d="M 282.254688 324.568956 
L 357.701591 324.568956 
L 357.701591 306.691044 
L 282.254688 306.691044 
" style="fill:none;stroke:#ff0000;stroke-width:2.0;"/>
    <path clip-path="url(#p9d842df7f3)" d="M 347.946759 351.385824 
L 388.357841 351.385824 
L 388.357841 315.63 
L 357.701591 315.63 
" style="fill:none;stroke:#ff0000;stroke-width:2.0;"/>
    <path clip-path="url(#p9d842df7f3)" d="M 282.254688 288.813132 
L 363.681021 288.813132 
L 363.681021 270.93522 
L 282.254688 270.93522 
" style="fill:none;stroke:#ff0000;stroke-width:2.0;"/>
    <path clip-path="url(#p9d842df7f3)" d="M 282.254688 253.057307 
L 361.879292 253.057307 
L 361.879292 235.179395 
L 282.254688 235.179395 
" style="fill:none;stroke:#ff0000;stroke-width:2.0;"/>
    <path clip-path="url(#p9d842df7f3)" d="M 282.254688 217.301483 
L 377.72324 217.301483 
L 377.72324 199.423571 
L 282.254688 199.423571 
" style="fill:none;stroke:#ff0000;stroke-width:2.0;"/>
    <path clip-path="url(#p9d842df7f3)" d="M 361.879292 244.118351 
L 399.52012 244.118351 
L 399.52012 208.362527 
L 377.72324 208.362527 
" style="fill:none;stroke:#ff0000;stroke-width:2.0;"/>
    <path clip-path="url(#p9d842df7f3)" d="M 363.681021 279.874176 
L 425.546025 279.874176 
L 425.546025 226.240439 
L 399.52012 226.240439 
" style="fill:none;stroke:#ff0000;stroke-width:2.0;"/>
    <path clip-path="url(#p9d842df7f3)" d="M 282.254688 181.545659 
L 355.326108 181.545659 
L 355.326108 163.667746 
L 282.254688 163.667746 
" style="fill:none;stroke:#ff0000;stroke-width:2.0;"/>
    <path clip-path="url(#p9d842df7f3)" d="M 282.254688 127.911922 
L 375.533281 127.911922 
L 375.533281 110.03401 
L 282.254688 110.03401 
" style="fill:none;stroke:#ff0000;stroke-width:2.0;"/>
    <path clip-path="url(#p9d842df7f3)" d="M 282.254688 145.789834 
L 381.158936 145.789834 
L 381.158936 118.972966 
L 375.533281 118.972966 
" style="fill:none;stroke:#ff0000;stroke-width:2.0;"/>
    <path clip-path="url(#p9d842df7f3)" d="M 355.326108 172.606702 
L 393.909301 172.606702 
L 393.909301 132.3814 
L 381.158936 132.3814 
" style="fill:none;stroke:#ff0000;stroke-width:2.0;"/>
    <path clip-path="url(#p9d842df7f3)" d="M 282.254688 92.156098 
L 365.100002 92.156098 
L 365.100002 74.278185 
L 282.254688 74.278185 
" style="fill:none;stroke:#ff0000;stroke-width:2.0;"/>
    <path clip-path="url(#p9d842df7f3)" d="M 282.254688 38.522361 
L 358.511125 38.522361 
L 358.511125 20.644449 
L 282.254688 20.644449 
" style="fill:none;stroke:#ff0000;stroke-width:2.0;"/>
    <path clip-path="url(#p9d842df7f3)" d="M 282.254688 56.400273 
L 375.839 56.400273 
L 375.839 29.583405 
L 358.511125 29.583405 
" style="fill:none;stroke:#ff0000;stroke-width:2.0;"/>
    <path clip-path="url(#p9d842df7f3)" d="M 365.100002 83.217141 
L 401.948762 83.217141 
L 401.948762 42.991839 
L 375.839 42.991839 
" style="fill:none;stroke:#ff0000;stroke-width:2.0;"/>
    <path clip-path="url(#p9d842df7f3)" d="M 393.909301 152.494051 
L 438.742219 152.494051 
L 438.742219 63.10449 
L 401.948762 63.10449 
" style="fill:none;stroke:#ff0000;stroke-width:2.0;"/>
    <path clip-path="url(#p9d842df7f3)" d="M 425.546025 253.057307 
L 451.05344 253.057307 
L 451.05344 107.799271 
L 438.742219 107.799271 
" style="fill:none;stroke:#ff0000;stroke-width:2.0;"/>
    <path clip-path="url(#p9d842df7f3)" d="M 388.357841 333.507912 
L 469.948495 333.507912 
L 469.948495 180.428289 
L 451.05344 180.428289 
" style="fill:none;stroke:#ff0000;stroke-width:2.0;"/>
    <path clip-path="url(#p9d842df7f3)" d="M 445.824212 506.141502 
L 570.240699 506.141502 
L 570.240699 256.968101 
L 469.948495 256.968101 
" style="fill:none;stroke:#ff0000;stroke-width:2.0;"/>
   </g>
   <g id="patch_3">
    <path d="M 282.254688 11.705493 
L 584.64 11.705493 
" style="fill:none;stroke:#000000;stroke-linecap:square;stroke-linejoin:miter;"/>
   </g>
   <g id="patch_4">
    <path d="M 584.64 619.554507 
L 584.64 11.705493 
" style="fill:none;stroke:#000000;stroke-linecap:square;stroke-linejoin:miter;"/>
   </g>
   <g id="patch_5">
    <path d="M 282.254688 619.554507 
L 584.64 619.554507 
" style="fill:none;stroke:#000000;stroke-linecap:square;stroke-linejoin:miter;"/>
   </g>
   <g id="patch_6">
    <path d="M 282.254688 619.554507 
L 282.254688 11.705493 
" style="fill:none;stroke:#000000;stroke-linecap:square;stroke-linejoin:miter;"/>
   </g>
   <g id="matplotlib.axis_1">
    <g id="xtick_1"/>
    <g id="xtick_2"/>
    <g id="xtick_3"/>
    <g id="xtick_4"/>
    <g id="xtick_5"/>
    <g id="xtick_6"/>
    <g id="xtick_7"/>
    <g id="xtick_8"/>
   </g>
   <g id="matplotlib.axis_2">
    <g id="ytick_1">
     <g id="text_1">
      <!-- Shake It -->
      <defs>
       <path id="BitstreamVeraSans-Roman-20"/>
       <path d="M 9.078125 75.984375 
L 18.109375 75.984375 
L 18.109375 31.109375 
L 44.921875 54.6875 
L 56.390625 54.6875 
L 27.390625 29.109375 
L 57.625 0 
L 45.90625 0 
L 18.109375 26.703125 
L 18.109375 0 
L 9.078125 0 
z
" id="BitstreamVeraSans-Roman-6b"/>
       <path d="M 53.515625 70.515625 
L 53.515625 60.890625 
Q 47.90625 63.578125 42.921875 64.890625 
Q 37.9375 66.21875 33.296875 66.21875 
Q 25.25 66.21875 20.875 63.09375 
Q 16.5 59.96875 16.5 54.203125 
Q 16.5 49.359375 19.40625 46.890625 
Q 22.3125 44.4375 30.421875 42.921875 
L 36.375 41.703125 
Q 47.40625 39.59375 52.65625 34.296875 
Q 57.90625 29 57.90625 20.125 
Q 57.90625 9.515625 50.796875 4.046875 
Q 43.703125 -1.421875 29.984375 -1.421875 
Q 24.8125 -1.421875 18.96875 -0.25 
Q 13.140625 0.921875 6.890625 3.21875 
L 6.890625 13.375 
Q 12.890625 10.015625 18.65625 8.296875 
Q 24.421875 6.59375 29.984375 6.59375 
Q 38.421875 6.59375 43.015625 9.90625 
Q 47.609375 13.234375 47.609375 19.390625 
Q 47.609375 24.75 44.3125 27.78125 
Q 41.015625 30.8125 33.5 32.328125 
L 27.484375 33.5 
Q 16.453125 35.6875 11.515625 40.375 
Q 6.59375 45.0625 6.59375 53.421875 
Q 6.59375 63.09375 13.40625 68.65625 
Q 20.21875 74.21875 32.171875 74.21875 
Q 37.3125 74.21875 42.625 73.28125 
Q 47.953125 72.359375 53.515625 70.515625 
" id="BitstreamVeraSans-Roman-53"/>
       <path d="M 54.890625 33.015625 
L 54.890625 0 
L 45.90625 0 
L 45.90625 32.71875 
Q 45.90625 40.484375 42.875 44.328125 
Q 39.84375 48.1875 33.796875 48.1875 
Q 26.515625 48.1875 22.3125 43.546875 
Q 18.109375 38.921875 18.109375 30.90625 
L 18.109375 0 
L 9.078125 0 
L 9.078125 75.984375 
L 18.109375 75.984375 
L 18.109375 46.1875 
Q 21.34375 51.125 25.703125 53.5625 
Q 30.078125 56 35.796875 56 
Q 45.21875 56 50.046875 50.171875 
Q 54.890625 44.34375 54.890625 33.015625 
" id="BitstreamVeraSans-Roman-68"/>
       <path d="M 56.203125 29.59375 
L 56.203125 25.203125 
L 14.890625 25.203125 
Q 15.484375 15.921875 20.484375 11.0625 
Q 25.484375 6.203125 34.421875 6.203125 
Q 39.59375 6.203125 44.453125 7.46875 
Q 49.3125 8.734375 54.109375 11.28125 
L 54.109375 2.78125 
Q 49.265625 0.734375 44.1875 -0.34375 
Q 39.109375 -1.421875 33.890625 -1.421875 
Q 20.796875 -1.421875 13.15625 6.1875 
Q 5.515625 13.8125 5.515625 26.8125 
Q 5.515625 40.234375 12.765625 48.109375 
Q 20.015625 56 32.328125 56 
Q 43.359375 56 49.78125 48.890625 
Q 56.203125 41.796875 56.203125 29.59375 
M 47.21875 32.234375 
Q 47.125 39.59375 43.09375 43.984375 
Q 39.0625 48.390625 32.421875 48.390625 
Q 24.90625 48.390625 20.390625 44.140625 
Q 15.875 39.890625 15.1875 32.171875 
z
" id="BitstreamVeraSans-Roman-65"/>
       <path d="M 18.3125 70.21875 
L 18.3125 54.6875 
L 36.8125 54.6875 
L 36.8125 47.703125 
L 18.3125 47.703125 
L 18.3125 18.015625 
Q 18.3125 11.328125 20.140625 9.421875 
Q 21.96875 7.515625 27.59375 7.515625 
L 36.8125 7.515625 
L 36.8125 0 
L 27.59375 0 
Q 17.1875 0 13.234375 3.875 
Q 9.28125 7.765625 9.28125 18.015625 
L 9.28125 47.703125 
L 2.6875 47.703125 
L 2.6875 54.6875 
L 9.28125 54.6875 
L 9.28125 70.21875 
z
" id="BitstreamVeraSans-Roman-74"/>
       <path d="M 34.28125 27.484375 
Q 23.390625 27.484375 19.1875 25 
Q 14.984375 22.515625 14.984375 16.5 
Q 14.984375 11.71875 18.140625 8.90625 
Q 21.296875 6.109375 26.703125 6.109375 
Q 34.1875 6.109375 38.703125 11.40625 
Q 43.21875 16.703125 43.21875 25.484375 
L 43.21875 27.484375 
z
M 52.203125 31.203125 
L 52.203125 0 
L 43.21875 0 
L 43.21875 8.296875 
Q 40.140625 3.328125 35.546875 0.953125 
Q 30.953125 -1.421875 24.3125 -1.421875 
Q 15.921875 -1.421875 10.953125 3.296875 
Q 6 8.015625 6 15.921875 
Q 6 25.140625 12.171875 29.828125 
Q 18.359375 34.515625 30.609375 34.515625 
L 43.21875 34.515625 
L 43.21875 35.40625 
Q 43.21875 41.609375 39.140625 45 
Q 35.0625 48.390625 27.6875 48.390625 
Q 23 48.390625 18.546875 47.265625 
Q 14.109375 46.140625 10.015625 43.890625 
L 10.015625 52.203125 
Q 14.9375 54.109375 19.578125 55.046875 
Q 24.21875 56 28.609375 56 
Q 40.484375 56 46.34375 49.84375 
Q 52.203125 43.703125 52.203125 31.203125 
" id="BitstreamVeraSans-Roman-61"/>
       <path d="M 9.8125 72.90625 
L 19.671875 72.90625 
L 19.671875 0 
L 9.8125 0 
z
" id="BitstreamVeraSans-Roman-49"/>
      </defs>
      <g transform="translate(212.9721875 615.030551254)scale(0.16 -0.16)">
       <use xlink:href="#BitstreamVeraSans-Roman-53"/>
       <use x="63.4765625" xlink:href="#BitstreamVeraSans-Roman-68"/>
       <use x="126.85546875" xlink:href="#BitstreamVeraSans-Roman-61"/>
       <use x="188.134765625" xlink:href="#BitstreamVeraSans-Roman-6b"/>
       <use x="245.998046875" xlink:href="#BitstreamVeraSans-Roman-65"/>
       <use x="307.521484375" xlink:href="#BitstreamVeraSans-Roman-20"/>
       <use x="339.30859375" xlink:href="#BitstreamVeraSans-Roman-49"/>
       <use x="368.80078125" xlink:href="#BitstreamVeraSans-Roman-74"/>
      </g>
     </g>
    </g>
    <g id="ytick_2">
     <g id="text_2">
      <!-- I Can\'t Explain -->
      <defs>
       <path d="M 8.296875 72.90625 
L 33.6875 -9.28125 
L 25.390625 -9.28125 
L 0 72.90625 
z
" id="BitstreamVeraSans-Roman-5c"/>
       <path d="M 17.921875 72.90625 
L 17.921875 45.796875 
L 9.625 45.796875 
L 9.625 72.90625 
z
" id="BitstreamVeraSans-Roman-27"/>
       <path d="M 54.890625 33.015625 
L 54.890625 0 
L 45.90625 0 
L 45.90625 32.71875 
Q 45.90625 40.484375 42.875 44.328125 
Q 39.84375 48.1875 33.796875 48.1875 
Q 26.515625 48.1875 22.3125 43.546875 
Q 18.109375 38.921875 18.109375 30.90625 
L 18.109375 0 
L 9.078125 0 
L 9.078125 54.6875 
L 18.109375 54.6875 
L 18.109375 46.1875 
Q 21.34375 51.125 25.703125 53.5625 
Q 30.078125 56 35.796875 56 
Q 45.21875 56 50.046875 50.171875 
Q 54.890625 44.34375 54.890625 33.015625 
" id="BitstreamVeraSans-Roman-6e"/>
       <path d="M 9.421875 75.984375 
L 18.40625 75.984375 
L 18.40625 0 
L 9.421875 0 
z
" id="BitstreamVeraSans-Roman-6c"/>
       <path d="M 9.8125 72.90625 
L 55.90625 72.90625 
L 55.90625 64.59375 
L 19.671875 64.59375 
L 19.671875 43.015625 
L 54.390625 43.015625 
L 54.390625 34.71875 
L 19.671875 34.71875 
L 19.671875 8.296875 
L 56.78125 8.296875 
L 56.78125 0 
L 9.8125 0 
z
" id="BitstreamVeraSans-Roman-45"/>
       <path d="M 64.40625 67.28125 
L 64.40625 56.890625 
Q 59.421875 61.53125 53.78125 63.8125 
Q 48.140625 66.109375 41.796875 66.109375 
Q 29.296875 66.109375 22.65625 58.46875 
Q 16.015625 50.828125 16.015625 36.375 
Q 16.015625 21.96875 22.65625 14.328125 
Q 29.296875 6.6875 41.796875 6.6875 
Q 48.140625 6.6875 53.78125 8.984375 
Q 59.421875 11.28125 64.40625 15.921875 
L 64.40625 5.609375 
Q 59.234375 2.09375 53.4375 0.328125 
Q 47.65625 -1.421875 41.21875 -1.421875 
Q 24.65625 -1.421875 15.125 8.703125 
Q 5.609375 18.84375 5.609375 36.375 
Q 5.609375 53.953125 15.125 64.078125 
Q 24.65625 74.21875 41.21875 74.21875 
Q 47.75 74.21875 53.53125 72.484375 
Q 59.328125 70.75 64.40625 67.28125 
" id="BitstreamVeraSans-Roman-43"/>
       <path d="M 54.890625 54.6875 
L 35.109375 28.078125 
L 55.90625 0 
L 45.3125 0 
L 29.390625 21.484375 
L 13.484375 0 
L 2.875 0 
L 24.125 28.609375 
L 4.6875 54.6875 
L 15.28125 54.6875 
L 29.78125 35.203125 
L 44.28125 54.6875 
z
" id="BitstreamVeraSans-Roman-78"/>
       <path d="M 9.421875 54.6875 
L 18.40625 54.6875 
L 18.40625 0 
L 9.421875 0 
z
M 9.421875 75.984375 
L 18.40625 75.984375 
L 18.40625 64.59375 
L 9.421875 64.59375 
z
" id="BitstreamVeraSans-Roman-69"/>
       <path d="M 18.109375 8.203125 
L 18.109375 -20.796875 
L 9.078125 -20.796875 
L 9.078125 54.6875 
L 18.109375 54.6875 
L 18.109375 46.390625 
Q 20.953125 51.265625 25.265625 53.625 
Q 29.59375 56 35.59375 56 
Q 45.5625 56 51.78125 48.09375 
Q 58.015625 40.1875 58.015625 27.296875 
Q 58.015625 14.40625 51.78125 6.484375 
Q 45.5625 -1.421875 35.59375 -1.421875 
Q 29.59375 -1.421875 25.265625 0.953125 
Q 20.953125 3.328125 18.109375 8.203125 
M 48.6875 27.296875 
Q 48.6875 37.203125 44.609375 42.84375 
Q 40.53125 48.484375 33.40625 48.484375 
Q 26.265625 48.484375 22.1875 42.84375 
Q 18.109375 37.203125 18.109375 27.296875 
Q 18.109375 17.390625 22.1875 11.75 
Q 26.265625 6.109375 33.40625 6.109375 
Q 40.53125 6.109375 44.609375 11.75 
Q 48.6875 17.390625 48.6875 27.296875 
" id="BitstreamVeraSans-Roman-70"/>
      </defs>
      <g transform="translate(157.6146875 597.152639057)scale(0.16 -0.16)">
       <use xlink:href="#BitstreamVeraSans-Roman-49"/>
       <use x="29.4921875" xlink:href="#BitstreamVeraSans-Roman-20"/>
       <use x="61.279296875" xlink:href="#BitstreamVeraSans-Roman-43"/>
       <use x="131.103515625" xlink:href="#BitstreamVeraSans-Roman-61"/>
       <use x="192.3828125" xlink:href="#BitstreamVeraSans-Roman-6e"/>
       <use x="255.76171875" xlink:href="#BitstreamVeraSans-Roman-5c"/>
       <use x="289.453125" xlink:href="#BitstreamVeraSans-Roman-27"/>
       <use x="316.943359375" xlink:href="#BitstreamVeraSans-Roman-74"/>
       <use x="356.15234375" xlink:href="#BitstreamVeraSans-Roman-20"/>
       <use x="387.939453125" xlink:href="#BitstreamVeraSans-Roman-45"/>
       <use x="451.123046875" xlink:href="#BitstreamVeraSans-Roman-78"/>
       <use x="510.302734375" xlink:href="#BitstreamVeraSans-Roman-70"/>
       <use x="573.779296875" xlink:href="#BitstreamVeraSans-Roman-6c"/>
       <use x="601.5625" xlink:href="#BitstreamVeraSans-Roman-61"/>
       <use x="662.841796875" xlink:href="#BitstreamVeraSans-Roman-69"/>
       <use x="690.625" xlink:href="#BitstreamVeraSans-Roman-6e"/>
      </g>
     </g>
    </g>
    <g id="ytick_3">
     <g id="text_3">
      <!-- Teenage Wildlife -->
      <defs>
       <path d="M 45.40625 46.390625 
L 45.40625 75.984375 
L 54.390625 75.984375 
L 54.390625 0 
L 45.40625 0 
L 45.40625 8.203125 
Q 42.578125 3.328125 38.25 0.953125 
Q 33.9375 -1.421875 27.875 -1.421875 
Q 17.96875 -1.421875 11.734375 6.484375 
Q 5.515625 14.40625 5.515625 27.296875 
Q 5.515625 40.1875 11.734375 48.09375 
Q 17.96875 56 27.875 56 
Q 33.9375 56 38.25 53.625 
Q 42.578125 51.265625 45.40625 46.390625 
M 14.796875 27.296875 
Q 14.796875 17.390625 18.875 11.75 
Q 22.953125 6.109375 30.078125 6.109375 
Q 37.203125 6.109375 41.296875 11.75 
Q 45.40625 17.390625 45.40625 27.296875 
Q 45.40625 37.203125 41.296875 42.84375 
Q 37.203125 48.484375 30.078125 48.484375 
Q 22.953125 48.484375 18.875 42.84375 
Q 14.796875 37.203125 14.796875 27.296875 
" id="BitstreamVeraSans-Roman-64"/>
       <path d="M 45.40625 27.984375 
Q 45.40625 37.75 41.375 43.109375 
Q 37.359375 48.484375 30.078125 48.484375 
Q 22.859375 48.484375 18.828125 43.109375 
Q 14.796875 37.75 14.796875 27.984375 
Q 14.796875 18.265625 18.828125 12.890625 
Q 22.859375 7.515625 30.078125 7.515625 
Q 37.359375 7.515625 41.375 12.890625 
Q 45.40625 18.265625 45.40625 27.984375 
M 54.390625 6.78125 
Q 54.390625 -7.171875 48.1875 -13.984375 
Q 42 -20.796875 29.203125 -20.796875 
Q 24.46875 -20.796875 20.265625 -20.09375 
Q 16.0625 -19.390625 12.109375 -17.921875 
L 12.109375 -9.1875 
Q 16.0625 -11.328125 19.921875 -12.34375 
Q 23.78125 -13.375 27.78125 -13.375 
Q 36.625 -13.375 41.015625 -8.765625 
Q 45.40625 -4.15625 45.40625 5.171875 
L 45.40625 9.625 
Q 42.625 4.78125 38.28125 2.390625 
Q 33.9375 0 27.875 0 
Q 17.828125 0 11.671875 7.65625 
Q 5.515625 15.328125 5.515625 27.984375 
Q 5.515625 40.671875 11.671875 48.328125 
Q 17.828125 56 27.875 56 
Q 33.9375 56 38.28125 53.609375 
Q 42.625 51.21875 45.40625 46.390625 
L 45.40625 54.6875 
L 54.390625 54.6875 
z
" id="BitstreamVeraSans-Roman-67"/>
       <path d="M 37.109375 75.984375 
L 37.109375 68.5 
L 28.515625 68.5 
Q 23.6875 68.5 21.796875 66.546875 
Q 19.921875 64.59375 19.921875 59.515625 
L 19.921875 54.6875 
L 34.71875 54.6875 
L 34.71875 47.703125 
L 19.921875 47.703125 
L 19.921875 0 
L 10.890625 0 
L 10.890625 47.703125 
L 2.296875 47.703125 
L 2.296875 54.6875 
L 10.890625 54.6875 
L 10.890625 58.5 
Q 10.890625 67.625 15.140625 71.796875 
Q 19.390625 75.984375 28.609375 75.984375 
z
" id="BitstreamVeraSans-Roman-66"/>
       <path d="M -0.296875 72.90625 
L 61.375 72.90625 
L 61.375 64.59375 
L 35.5 64.59375 
L 35.5 0 
L 25.59375 0 
L 25.59375 64.59375 
L -0.296875 64.59375 
z
" id="BitstreamVeraSans-Roman-54"/>
       <path d="M 3.328125 72.90625 
L 13.28125 72.90625 
L 28.609375 11.28125 
L 43.890625 72.90625 
L 54.984375 72.90625 
L 70.3125 11.28125 
L 85.59375 72.90625 
L 95.609375 72.90625 
L 77.296875 0 
L 64.890625 0 
L 49.515625 63.28125 
L 33.984375 0 
L 21.578125 0 
z
" id="BitstreamVeraSans-Roman-57"/>
      </defs>
      <g transform="translate(144.5721875 579.27472686)scale(0.16 -0.16)">
       <use xlink:href="#BitstreamVeraSans-Roman-54"/>
       <use x="60.818359375" xlink:href="#BitstreamVeraSans-Roman-65"/>
       <use x="122.341796875" xlink:href="#BitstreamVeraSans-Roman-65"/>
       <use x="183.865234375" xlink:href="#BitstreamVeraSans-Roman-6e"/>
       <use x="247.244140625" xlink:href="#BitstreamVeraSans-Roman-61"/>
       <use x="308.5234375" xlink:href="#BitstreamVeraSans-Roman-67"/>
       <use x="372.0" xlink:href="#BitstreamVeraSans-Roman-65"/>
       <use x="433.5234375" xlink:href="#BitstreamVeraSans-Roman-20"/>
       <use x="465.310546875" xlink:href="#BitstreamVeraSans-Roman-57"/>
       <use x="564.15625" xlink:href="#BitstreamVeraSans-Roman-69"/>
       <use x="591.939453125" xlink:href="#BitstreamVeraSans-Roman-6c"/>
       <use x="619.72265625" xlink:href="#BitstreamVeraSans-Roman-64"/>
       <use x="683.19921875" xlink:href="#BitstreamVeraSans-Roman-6c"/>
       <use x="710.982421875" xlink:href="#BitstreamVeraSans-Roman-69"/>
       <use x="738.765625" xlink:href="#BitstreamVeraSans-Roman-66"/>
       <use x="773.970703125" xlink:href="#BitstreamVeraSans-Roman-65"/>
      </g>
     </g>
    </g>
    <g id="ytick_4">
     <g id="text_4">
      <!-- Tumble And Twirl -->
      <defs>
       <path d="M 52 44.1875 
Q 55.375 50.25 60.0625 53.125 
Q 64.75 56 71.09375 56 
Q 79.640625 56 84.28125 50.015625 
Q 88.921875 44.046875 88.921875 33.015625 
L 88.921875 0 
L 79.890625 0 
L 79.890625 32.71875 
Q 79.890625 40.578125 77.09375 44.375 
Q 74.3125 48.1875 68.609375 48.1875 
Q 61.625 48.1875 57.5625 43.546875 
Q 53.515625 38.921875 53.515625 30.90625 
L 53.515625 0 
L 44.484375 0 
L 44.484375 32.71875 
Q 44.484375 40.625 41.703125 44.40625 
Q 38.921875 48.1875 33.109375 48.1875 
Q 26.21875 48.1875 22.15625 43.53125 
Q 18.109375 38.875 18.109375 30.90625 
L 18.109375 0 
L 9.078125 0 
L 9.078125 54.6875 
L 18.109375 54.6875 
L 18.109375 46.1875 
Q 21.1875 51.21875 25.484375 53.609375 
Q 29.78125 56 35.6875 56 
Q 41.65625 56 45.828125 52.96875 
Q 50 49.953125 52 44.1875 
" id="BitstreamVeraSans-Roman-6d"/>
       <path d="M 34.1875 63.1875 
L 20.796875 26.90625 
L 47.609375 26.90625 
z
M 28.609375 72.90625 
L 39.796875 72.90625 
L 67.578125 0 
L 57.328125 0 
L 50.6875 18.703125 
L 17.828125 18.703125 
L 11.1875 0 
L 0.78125 0 
z
" id="BitstreamVeraSans-Roman-41"/>
       <path d="M 4.203125 54.6875 
L 13.1875 54.6875 
L 24.421875 12.015625 
L 35.59375 54.6875 
L 46.1875 54.6875 
L 57.421875 12.015625 
L 68.609375 54.6875 
L 77.59375 54.6875 
L 63.28125 0 
L 52.6875 0 
L 40.921875 44.828125 
L 29.109375 0 
L 18.5 0 
z
" id="BitstreamVeraSans-Roman-77"/>
       <path d="M 8.5 21.578125 
L 8.5 54.6875 
L 17.484375 54.6875 
L 17.484375 21.921875 
Q 17.484375 14.15625 20.5 10.265625 
Q 23.53125 6.390625 29.59375 6.390625 
Q 36.859375 6.390625 41.078125 11.03125 
Q 45.3125 15.671875 45.3125 23.6875 
L 45.3125 54.6875 
L 54.296875 54.6875 
L 54.296875 0 
L 45.3125 0 
L 45.3125 8.40625 
Q 42.046875 3.421875 37.71875 1 
Q 33.40625 -1.421875 27.6875 -1.421875 
Q 18.265625 -1.421875 13.375 4.4375 
Q 8.5 10.296875 8.5 21.578125 
" id="BitstreamVeraSans-Roman-75"/>
       <path d="M 41.109375 46.296875 
Q 39.59375 47.171875 37.8125 47.578125 
Q 36.03125 48 33.890625 48 
Q 26.265625 48 22.1875 43.046875 
Q 18.109375 38.09375 18.109375 28.8125 
L 18.109375 0 
L 9.078125 0 
L 9.078125 54.6875 
L 18.109375 54.6875 
L 18.109375 46.1875 
Q 20.953125 51.171875 25.484375 53.578125 
Q 30.03125 56 36.53125 56 
Q 37.453125 56 38.578125 55.875 
Q 39.703125 55.765625 41.0625 55.515625 
z
" id="BitstreamVeraSans-Roman-72"/>
       <path d="M 48.6875 27.296875 
Q 48.6875 37.203125 44.609375 42.84375 
Q 40.53125 48.484375 33.40625 48.484375 
Q 26.265625 48.484375 22.1875 42.84375 
Q 18.109375 37.203125 18.109375 27.296875 
Q 18.109375 17.390625 22.1875 11.75 
Q 26.265625 6.109375 33.40625 6.109375 
Q 40.53125 6.109375 44.609375 11.75 
Q 48.6875 17.390625 48.6875 27.296875 
M 18.109375 46.390625 
Q 20.953125 51.265625 25.265625 53.625 
Q 29.59375 56 35.59375 56 
Q 45.5625 56 51.78125 48.09375 
Q 58.015625 40.1875 58.015625 27.296875 
Q 58.015625 14.40625 51.78125 6.484375 
Q 45.5625 -1.421875 35.59375 -1.421875 
Q 29.59375 -1.421875 25.265625 0.953125 
Q 20.953125 3.328125 18.109375 8.203125 
L 18.109375 0 
L 9.078125 0 
L 9.078125 75.984375 
L 18.109375 75.984375 
z
" id="BitstreamVeraSans-Roman-62"/>
      </defs>
      <g transform="translate(138.6496875 561.396814663)scale(0.16 -0.16)">
       <use xlink:href="#BitstreamVeraSans-Roman-54"/>
       <use x="60.849609375" xlink:href="#BitstreamVeraSans-Roman-75"/>
       <use x="124.228515625" xlink:href="#BitstreamVeraSans-Roman-6d"/>
       <use x="221.640625" xlink:href="#BitstreamVeraSans-Roman-62"/>
       <use x="285.1171875" xlink:href="#BitstreamVeraSans-Roman-6c"/>
       <use x="312.900390625" xlink:href="#BitstreamVeraSans-Roman-65"/>
       <use x="374.423828125" xlink:href="#BitstreamVeraSans-Roman-20"/>
       <use x="406.2109375" xlink:href="#BitstreamVeraSans-Roman-41"/>
       <use x="474.619140625" xlink:href="#BitstreamVeraSans-Roman-6e"/>
       <use x="537.998046875" xlink:href="#BitstreamVeraSans-Roman-64"/>
       <use x="601.474609375" xlink:href="#BitstreamVeraSans-Roman-20"/>
       <use x="633.26171875" xlink:href="#BitstreamVeraSans-Roman-54"/>
       <use x="694.095703125" xlink:href="#BitstreamVeraSans-Roman-77"/>
       <use x="775.8828125" xlink:href="#BitstreamVeraSans-Roman-69"/>
       <use x="803.666015625" xlink:href="#BitstreamVeraSans-Roman-72"/>
       <use x="844.779296875" xlink:href="#BitstreamVeraSans-Roman-6c"/>
      </g>
     </g>
    </g>
    <g id="ytick_5">
     <g id="text_5">
      <!-- Valentine\'s Day -->
      <defs>
       <path d="M 19.671875 64.796875 
L 19.671875 8.109375 
L 31.59375 8.109375 
Q 46.6875 8.109375 53.6875 14.9375 
Q 60.6875 21.78125 60.6875 36.53125 
Q 60.6875 51.171875 53.6875 57.984375 
Q 46.6875 64.796875 31.59375 64.796875 
z
M 9.8125 72.90625 
L 30.078125 72.90625 
Q 51.265625 72.90625 61.171875 64.09375 
Q 71.09375 55.28125 71.09375 36.53125 
Q 71.09375 17.671875 61.125 8.828125 
Q 51.171875 0 30.078125 0 
L 9.8125 0 
z
" id="BitstreamVeraSans-Roman-44"/>
       <path d="M 44.28125 53.078125 
L 44.28125 44.578125 
Q 40.484375 46.53125 36.375 47.5 
Q 32.28125 48.484375 27.875 48.484375 
Q 21.1875 48.484375 17.84375 46.4375 
Q 14.5 44.390625 14.5 40.28125 
Q 14.5 37.15625 16.890625 35.375 
Q 19.28125 33.59375 26.515625 31.984375 
L 29.59375 31.296875 
Q 39.15625 29.25 43.1875 25.515625 
Q 47.21875 21.78125 47.21875 15.09375 
Q 47.21875 7.46875 41.1875 3.015625 
Q 35.15625 -1.421875 24.609375 -1.421875 
Q 20.21875 -1.421875 15.453125 -0.5625 
Q 10.6875 0.296875 5.421875 2 
L 5.421875 11.28125 
Q 10.40625 8.6875 15.234375 7.390625 
Q 20.0625 6.109375 24.8125 6.109375 
Q 31.15625 6.109375 34.5625 8.28125 
Q 37.984375 10.453125 37.984375 14.40625 
Q 37.984375 18.0625 35.515625 20.015625 
Q 33.0625 21.96875 24.703125 23.78125 
L 21.578125 24.515625 
Q 13.234375 26.265625 9.515625 29.90625 
Q 5.8125 33.546875 5.8125 39.890625 
Q 5.8125 47.609375 11.28125 51.796875 
Q 16.75 56 26.8125 56 
Q 31.78125 56 36.171875 55.265625 
Q 40.578125 54.546875 44.28125 53.078125 
" id="BitstreamVeraSans-Roman-73"/>
       <path d="M 28.609375 0 
L 0.78125 72.90625 
L 11.078125 72.90625 
L 34.1875 11.53125 
L 57.328125 72.90625 
L 67.578125 72.90625 
L 39.796875 0 
z
" id="BitstreamVeraSans-Roman-56"/>
       <path d="M 32.171875 -5.078125 
Q 28.375 -14.84375 24.75 -17.8125 
Q 21.140625 -20.796875 15.09375 -20.796875 
L 7.90625 -20.796875 
L 7.90625 -13.28125 
L 13.1875 -13.28125 
Q 16.890625 -13.28125 18.9375 -11.515625 
Q 21 -9.765625 23.484375 -3.21875 
L 25.09375 0.875 
L 2.984375 54.6875 
L 12.5 54.6875 
L 29.59375 11.921875 
L 46.6875 54.6875 
L 56.203125 54.6875 
z
" id="BitstreamVeraSans-Roman-79"/>
      </defs>
      <g transform="translate(147.5871875 543.518902465)scale(0.16 -0.16)">
       <use xlink:href="#BitstreamVeraSans-Roman-56"/>
       <use x="68.298828125" xlink:href="#BitstreamVeraSans-Roman-61"/>
       <use x="129.578125" xlink:href="#BitstreamVeraSans-Roman-6c"/>
       <use x="157.361328125" xlink:href="#BitstreamVeraSans-Roman-65"/>
       <use x="218.884765625" xlink:href="#BitstreamVeraSans-Roman-6e"/>
       <use x="282.263671875" xlink:href="#BitstreamVeraSans-Roman-74"/>
       <use x="321.47265625" xlink:href="#BitstreamVeraSans-Roman-69"/>
       <use x="349.255859375" xlink:href="#BitstreamVeraSans-Roman-6e"/>
       <use x="412.634765625" xlink:href="#BitstreamVeraSans-Roman-65"/>
       <use x="474.158203125" xlink:href="#BitstreamVeraSans-Roman-5c"/>
       <use x="507.849609375" xlink:href="#BitstreamVeraSans-Roman-27"/>
       <use x="535.33984375" xlink:href="#BitstreamVeraSans-Roman-73"/>
       <use x="587.439453125" xlink:href="#BitstreamVeraSans-Roman-20"/>
       <use x="619.2265625" xlink:href="#BitstreamVeraSans-Roman-44"/>
       <use x="696.228515625" xlink:href="#BitstreamVeraSans-Roman-61"/>
       <use x="757.5078125" xlink:href="#BitstreamVeraSans-Roman-79"/>
      </g>
     </g>
    </g>
    <g id="ytick_6">
     <g id="text_6">
      <!-- Letter To Hermione -->
      <defs>
       <path d="M 30.609375 48.390625 
Q 23.390625 48.390625 19.1875 42.75 
Q 14.984375 37.109375 14.984375 27.296875 
Q 14.984375 17.484375 19.15625 11.84375 
Q 23.34375 6.203125 30.609375 6.203125 
Q 37.796875 6.203125 41.984375 11.859375 
Q 46.1875 17.53125 46.1875 27.296875 
Q 46.1875 37.015625 41.984375 42.703125 
Q 37.796875 48.390625 30.609375 48.390625 
M 30.609375 56 
Q 42.328125 56 49.015625 48.375 
Q 55.71875 40.765625 55.71875 27.296875 
Q 55.71875 13.875 49.015625 6.21875 
Q 42.328125 -1.421875 30.609375 -1.421875 
Q 18.84375 -1.421875 12.171875 6.21875 
Q 5.515625 13.875 5.515625 27.296875 
Q 5.515625 40.765625 12.171875 48.375 
Q 18.84375 56 30.609375 56 
" id="BitstreamVeraSans-Roman-6f"/>
       <path d="M 9.8125 72.90625 
L 19.671875 72.90625 
L 19.671875 8.296875 
L 55.171875 8.296875 
L 55.171875 0 
L 9.8125 0 
z
" id="BitstreamVeraSans-Roman-4c"/>
       <path d="M 9.8125 72.90625 
L 19.671875 72.90625 
L 19.671875 43.015625 
L 55.515625 43.015625 
L 55.515625 72.90625 
L 65.375 72.90625 
L 65.375 0 
L 55.515625 0 
L 55.515625 34.71875 
L 19.671875 34.71875 
L 19.671875 0 
L 9.8125 0 
z
" id="BitstreamVeraSans-Roman-48"/>
      </defs>
      <g transform="translate(122.5821875 525.640990268)scale(0.16 -0.16)">
       <use xlink:href="#BitstreamVeraSans-Roman-4c"/>
       <use x="55.697265625" xlink:href="#BitstreamVeraSans-Roman-65"/>
       <use x="117.220703125" xlink:href="#BitstreamVeraSans-Roman-74"/>
       <use x="156.4296875" xlink:href="#BitstreamVeraSans-Roman-74"/>
       <use x="195.638671875" xlink:href="#BitstreamVeraSans-Roman-65"/>
       <use x="257.162109375" xlink:href="#BitstreamVeraSans-Roman-72"/>
       <use x="298.275390625" xlink:href="#BitstreamVeraSans-Roman-20"/>
       <use x="330.0625" xlink:href="#BitstreamVeraSans-Roman-54"/>
       <use x="390.880859375" xlink:href="#BitstreamVeraSans-Roman-6f"/>
       <use x="452.0625" xlink:href="#BitstreamVeraSans-Roman-20"/>
       <use x="483.849609375" xlink:href="#BitstreamVeraSans-Roman-48"/>
       <use x="559.044921875" xlink:href="#BitstreamVeraSans-Roman-65"/>
       <use x="620.568359375" xlink:href="#BitstreamVeraSans-Roman-72"/>
       <use x="661.666015625" xlink:href="#BitstreamVeraSans-Roman-6d"/>
       <use x="759.078125" xlink:href="#BitstreamVeraSans-Roman-69"/>
       <use x="786.861328125" xlink:href="#BitstreamVeraSans-Roman-6f"/>
       <use x="848.04296875" xlink:href="#BitstreamVeraSans-Roman-6e"/>
       <use x="911.421875" xlink:href="#BitstreamVeraSans-Roman-65"/>
      </g>
     </g>
    </g>
    <g id="ytick_7">
     <g id="text_7">
      <!-- Somebody Up There Likes Me -->
      <defs>
       <path d="M 9.8125 72.90625 
L 24.515625 72.90625 
L 43.109375 23.296875 
L 61.8125 72.90625 
L 76.515625 72.90625 
L 76.515625 0 
L 66.890625 0 
L 66.890625 64.015625 
L 48.09375 14.015625 
L 38.1875 14.015625 
L 19.390625 64.015625 
L 19.390625 0 
L 9.8125 0 
z
" id="BitstreamVeraSans-Roman-4d"/>
       <path d="M 8.6875 72.90625 
L 18.609375 72.90625 
L 18.609375 28.609375 
Q 18.609375 16.890625 22.84375 11.734375 
Q 27.09375 6.59375 36.625 6.59375 
Q 46.09375 6.59375 50.34375 11.734375 
Q 54.59375 16.890625 54.59375 28.609375 
L 54.59375 72.90625 
L 64.5 72.90625 
L 64.5 27.390625 
Q 64.5 13.140625 57.4375 5.859375 
Q 50.390625 -1.421875 36.625 -1.421875 
Q 22.796875 -1.421875 15.734375 5.859375 
Q 8.6875 13.140625 8.6875 27.390625 
z
" id="BitstreamVeraSans-Roman-55"/>
      </defs>
      <g transform="translate(40.4721875 507.763078071)scale(0.16 -0.16)">
       <use xlink:href="#BitstreamVeraSans-Roman-53"/>
       <use x="63.4765625" xlink:href="#BitstreamVeraSans-Roman-6f"/>
       <use x="124.658203125" xlink:href="#BitstreamVeraSans-Roman-6d"/>
       <use x="222.0703125" xlink:href="#BitstreamVeraSans-Roman-65"/>
       <use x="283.59375" xlink:href="#BitstreamVeraSans-Roman-62"/>
       <use x="347.0703125" xlink:href="#BitstreamVeraSans-Roman-6f"/>
       <use x="408.251953125" xlink:href="#BitstreamVeraSans-Roman-64"/>
       <use x="471.728515625" xlink:href="#BitstreamVeraSans-Roman-79"/>
       <use x="530.908203125" xlink:href="#BitstreamVeraSans-Roman-20"/>
       <use x="562.6953125" xlink:href="#BitstreamVeraSans-Roman-55"/>
       <use x="635.888671875" xlink:href="#BitstreamVeraSans-Roman-70"/>
       <use x="699.365234375" xlink:href="#BitstreamVeraSans-Roman-20"/>
       <use x="731.15234375" xlink:href="#BitstreamVeraSans-Roman-54"/>
       <use x="792.236328125" xlink:href="#BitstreamVeraSans-Roman-68"/>
       <use x="855.615234375" xlink:href="#BitstreamVeraSans-Roman-65"/>
       <use x="917.138671875" xlink:href="#BitstreamVeraSans-Roman-72"/>
       <use x="958.220703125" xlink:href="#BitstreamVeraSans-Roman-65"/>
       <use x="1019.74414062" xlink:href="#BitstreamVeraSans-Roman-20"/>
       <use x="1051.53125" xlink:href="#BitstreamVeraSans-Roman-4c"/>
       <use x="1107.24414062" xlink:href="#BitstreamVeraSans-Roman-69"/>
       <use x="1135.02734375" xlink:href="#BitstreamVeraSans-Roman-6b"/>
       <use x="1192.890625" xlink:href="#BitstreamVeraSans-Roman-65"/>
       <use x="1254.4140625" xlink:href="#BitstreamVeraSans-Roman-73"/>
       <use x="1306.51367188" xlink:href="#BitstreamVeraSans-Roman-20"/>
       <use x="1338.30078125" xlink:href="#BitstreamVeraSans-Roman-4d"/>
       <use x="1424.58007812" xlink:href="#BitstreamVeraSans-Roman-65"/>
      </g>
     </g>
    </g>
    <g id="ytick_8">
     <g id="text_8">
      <!-- Stay -->
      <g transform="translate(242.5496875 489.885165874)scale(0.16 -0.16)">
       <use xlink:href="#BitstreamVeraSans-Roman-53"/>
       <use x="63.4765625" xlink:href="#BitstreamVeraSans-Roman-74"/>
       <use x="102.685546875" xlink:href="#BitstreamVeraSans-Roman-61"/>
       <use x="163.96484375" xlink:href="#BitstreamVeraSans-Roman-79"/>
      </g>
     </g>
    </g>
    <g id="ytick_9">
     <g id="text_9">
      <!-- Beauty And The Beast -->
      <defs>
       <path d="M 19.671875 34.8125 
L 19.671875 8.109375 
L 35.5 8.109375 
Q 43.453125 8.109375 47.28125 11.40625 
Q 51.125 14.703125 51.125 21.484375 
Q 51.125 28.328125 47.28125 31.5625 
Q 43.453125 34.8125 35.5 34.8125 
z
M 19.671875 64.796875 
L 19.671875 42.828125 
L 34.28125 42.828125 
Q 41.5 42.828125 45.03125 45.53125 
Q 48.578125 48.25 48.578125 53.8125 
Q 48.578125 59.328125 45.03125 62.0625 
Q 41.5 64.796875 34.28125 64.796875 
z
M 9.8125 72.90625 
L 35.015625 72.90625 
Q 46.296875 72.90625 52.390625 68.21875 
Q 58.5 63.53125 58.5 54.890625 
Q 58.5 48.1875 55.375 44.234375 
Q 52.25 40.28125 46.1875 39.3125 
Q 53.46875 37.75 57.5 32.78125 
Q 61.53125 27.828125 61.53125 20.40625 
Q 61.53125 10.640625 54.890625 5.3125 
Q 48.25 0 35.984375 0 
L 9.8125 0 
z
" id="BitstreamVeraSans-Roman-42"/>
      </defs>
      <g transform="translate(100.2546875 472.007253676)scale(0.16 -0.16)">
       <use xlink:href="#BitstreamVeraSans-Roman-42"/>
       <use x="68.603515625" xlink:href="#BitstreamVeraSans-Roman-65"/>
       <use x="130.126953125" xlink:href="#BitstreamVeraSans-Roman-61"/>
       <use x="191.40625" xlink:href="#BitstreamVeraSans-Roman-75"/>
       <use x="254.78515625" xlink:href="#BitstreamVeraSans-Roman-74"/>
       <use x="293.994140625" xlink:href="#BitstreamVeraSans-Roman-79"/>
       <use x="353.173828125" xlink:href="#BitstreamVeraSans-Roman-20"/>
       <use x="384.9609375" xlink:href="#BitstreamVeraSans-Roman-41"/>
       <use x="453.369140625" xlink:href="#BitstreamVeraSans-Roman-6e"/>
       <use x="516.748046875" xlink:href="#BitstreamVeraSans-Roman-64"/>
       <use x="580.224609375" xlink:href="#BitstreamVeraSans-Roman-20"/>
       <use x="612.01171875" xlink:href="#BitstreamVeraSans-Roman-54"/>
       <use x="673.095703125" xlink:href="#BitstreamVeraSans-Roman-68"/>
       <use x="736.474609375" xlink:href="#BitstreamVeraSans-Roman-65"/>
       <use x="797.998046875" xlink:href="#BitstreamVeraSans-Roman-20"/>
       <use x="829.78515625" xlink:href="#BitstreamVeraSans-Roman-42"/>
       <use x="898.388671875" xlink:href="#BitstreamVeraSans-Roman-65"/>
       <use x="959.912109375" xlink:href="#BitstreamVeraSans-Roman-61"/>
       <use x="1021.19140625" xlink:href="#BitstreamVeraSans-Roman-73"/>
       <use x="1073.29101562" xlink:href="#BitstreamVeraSans-Roman-74"/>
      </g>
     </g>
    </g>
    <g id="ytick_10">
     <g id="text_10">
      <!-- Something In The Air -->
      <g transform="translate(109.8821875 454.129341479)scale(0.16 -0.16)">
       <use xlink:href="#BitstreamVeraSans-Roman-53"/>
       <use x="63.4765625" xlink:href="#BitstreamVeraSans-Roman-6f"/>
       <use x="124.658203125" xlink:href="#BitstreamVeraSans-Roman-6d"/>
       <use x="222.0703125" xlink:href="#BitstreamVeraSans-Roman-65"/>
       <use x="283.59375" xlink:href="#BitstreamVeraSans-Roman-74"/>
       <use x="322.802734375" xlink:href="#BitstreamVeraSans-Roman-68"/>
       <use x="386.181640625" xlink:href="#BitstreamVeraSans-Roman-69"/>
       <use x="413.96484375" xlink:href="#BitstreamVeraSans-Roman-6e"/>
       <use x="477.34375" xlink:href="#BitstreamVeraSans-Roman-67"/>
       <use x="540.8203125" xlink:href="#BitstreamVeraSans-Roman-20"/>
       <use x="572.607421875" xlink:href="#BitstreamVeraSans-Roman-49"/>
       <use x="602.099609375" xlink:href="#BitstreamVeraSans-Roman-6e"/>
       <use x="665.478515625" xlink:href="#BitstreamVeraSans-Roman-20"/>
       <use x="697.265625" xlink:href="#BitstreamVeraSans-Roman-54"/>
       <use x="758.349609375" xlink:href="#BitstreamVeraSans-Roman-68"/>
       <use x="821.728515625" xlink:href="#BitstreamVeraSans-Roman-65"/>
       <use x="883.251953125" xlink:href="#BitstreamVeraSans-Roman-20"/>
       <use x="915.0390625" xlink:href="#BitstreamVeraSans-Roman-41"/>
       <use x="983.447265625" xlink:href="#BitstreamVeraSans-Roman-69"/>
       <use x="1011.23046875" xlink:href="#BitstreamVeraSans-Roman-72"/>
      </g>
     </g>
    </g>
    <g id="ytick_11">
     <g id="text_11">
      <!-- Jump They Say -->
      <defs>
       <path d="M 9.8125 72.90625 
L 19.671875 72.90625 
L 19.671875 5.078125 
Q 19.671875 -8.109375 14.671875 -14.0625 
Q 9.671875 -20.015625 -1.421875 -20.015625 
L -5.171875 -20.015625 
L -5.171875 -11.71875 
L -2.09375 -11.71875 
Q 4.4375 -11.71875 7.125 -8.046875 
Q 9.8125 -4.390625 9.8125 5.078125 
z
" id="BitstreamVeraSans-Roman-4a"/>
      </defs>
      <g transform="translate(158.8221875 436.251429282)scale(0.16 -0.16)">
       <use xlink:href="#BitstreamVeraSans-Roman-4a"/>
       <use x="29.4921875" xlink:href="#BitstreamVeraSans-Roman-75"/>
       <use x="92.87109375" xlink:href="#BitstreamVeraSans-Roman-6d"/>
       <use x="190.283203125" xlink:href="#BitstreamVeraSans-Roman-70"/>
       <use x="253.759765625" xlink:href="#BitstreamVeraSans-Roman-20"/>
       <use x="285.546875" xlink:href="#BitstreamVeraSans-Roman-54"/>
       <use x="346.630859375" xlink:href="#BitstreamVeraSans-Roman-68"/>
       <use x="410.009765625" xlink:href="#BitstreamVeraSans-Roman-65"/>
       <use x="471.533203125" xlink:href="#BitstreamVeraSans-Roman-79"/>
       <use x="530.712890625" xlink:href="#BitstreamVeraSans-Roman-20"/>
       <use x="562.5" xlink:href="#BitstreamVeraSans-Roman-53"/>
       <use x="625.9765625" xlink:href="#BitstreamVeraSans-Roman-61"/>
       <use x="687.255859375" xlink:href="#BitstreamVeraSans-Roman-79"/>
      </g>
     </g>
    </g>
    <g id="ytick_12">
     <g id="text_12">
      <!-- Everyone Says \'HI\' -->
      <defs>
       <path d="M 2.984375 54.6875 
L 12.5 54.6875 
L 29.59375 8.796875 
L 46.6875 54.6875 
L 56.203125 54.6875 
L 35.6875 0 
L 23.484375 0 
z
" id="BitstreamVeraSans-Roman-76"/>
      </defs>
      <g transform="translate(118.7421875 418.373517085)scale(0.16 -0.16)">
       <use xlink:href="#BitstreamVeraSans-Roman-45"/>
       <use x="63.18359375" xlink:href="#BitstreamVeraSans-Roman-76"/>
       <use x="122.36328125" xlink:href="#BitstreamVeraSans-Roman-65"/>
       <use x="183.88671875" xlink:href="#BitstreamVeraSans-Roman-72"/>
       <use x="225.0" xlink:href="#BitstreamVeraSans-Roman-79"/>
       <use x="284.1796875" xlink:href="#BitstreamVeraSans-Roman-6f"/>
       <use x="345.361328125" xlink:href="#BitstreamVeraSans-Roman-6e"/>
       <use x="408.740234375" xlink:href="#BitstreamVeraSans-Roman-65"/>
       <use x="470.263671875" xlink:href="#BitstreamVeraSans-Roman-20"/>
       <use x="502.05078125" xlink:href="#BitstreamVeraSans-Roman-53"/>
       <use x="565.52734375" xlink:href="#BitstreamVeraSans-Roman-61"/>
       <use x="626.806640625" xlink:href="#BitstreamVeraSans-Roman-79"/>
       <use x="685.986328125" xlink:href="#BitstreamVeraSans-Roman-73"/>
       <use x="738.0859375" xlink:href="#BitstreamVeraSans-Roman-20"/>
       <use x="769.873046875" xlink:href="#BitstreamVeraSans-Roman-5c"/>
       <use x="803.564453125" xlink:href="#BitstreamVeraSans-Roman-27"/>
       <use x="831.0546875" xlink:href="#BitstreamVeraSans-Roman-48"/>
       <use x="906.25" xlink:href="#BitstreamVeraSans-Roman-49"/>
       <use x="935.7421875" xlink:href="#BitstreamVeraSans-Roman-5c"/>
       <use x="969.43359375" xlink:href="#BitstreamVeraSans-Roman-27"/>
      </g>
     </g>
    </g>
    <g id="ytick_13">
     <g id="text_13">
      <!-- Queen Bitch -->
      <defs>
       <path d="M 39.40625 66.21875 
Q 28.65625 66.21875 22.328125 58.203125 
Q 16.015625 50.203125 16.015625 36.375 
Q 16.015625 22.609375 22.328125 14.59375 
Q 28.65625 6.59375 39.40625 6.59375 
Q 50.140625 6.59375 56.421875 14.59375 
Q 62.703125 22.609375 62.703125 36.375 
Q 62.703125 50.203125 56.421875 58.203125 
Q 50.140625 66.21875 39.40625 66.21875 
M 53.21875 1.3125 
L 66.21875 -12.890625 
L 54.296875 -12.890625 
L 43.5 -1.21875 
Q 41.890625 -1.3125 41.03125 -1.359375 
Q 40.1875 -1.421875 39.40625 -1.421875 
Q 24.03125 -1.421875 14.8125 8.859375 
Q 5.609375 19.140625 5.609375 36.375 
Q 5.609375 53.65625 14.8125 63.9375 
Q 24.03125 74.21875 39.40625 74.21875 
Q 54.734375 74.21875 63.90625 63.9375 
Q 73.09375 53.65625 73.09375 36.375 
Q 73.09375 23.6875 67.984375 14.640625 
Q 62.890625 5.609375 53.21875 1.3125 
" id="BitstreamVeraSans-Roman-51"/>
       <path d="M 48.78125 52.59375 
L 48.78125 44.1875 
Q 44.96875 46.296875 41.140625 47.34375 
Q 37.3125 48.390625 33.40625 48.390625 
Q 24.65625 48.390625 19.8125 42.84375 
Q 14.984375 37.3125 14.984375 27.296875 
Q 14.984375 17.28125 19.8125 11.734375 
Q 24.65625 6.203125 33.40625 6.203125 
Q 37.3125 6.203125 41.140625 7.25 
Q 44.96875 8.296875 48.78125 10.40625 
L 48.78125 2.09375 
Q 45.015625 0.34375 40.984375 -0.53125 
Q 36.96875 -1.421875 32.421875 -1.421875 
Q 20.0625 -1.421875 12.78125 6.34375 
Q 5.515625 14.109375 5.515625 27.296875 
Q 5.515625 40.671875 12.859375 48.328125 
Q 20.21875 56 33.015625 56 
Q 37.15625 56 41.109375 55.140625 
Q 45.0625 54.296875 48.78125 52.59375 
" id="BitstreamVeraSans-Roman-63"/>
      </defs>
      <g transform="translate(179.9721875 400.495604888)scale(0.16 -0.16)">
       <use xlink:href="#BitstreamVeraSans-Roman-51"/>
       <use x="78.7109375" xlink:href="#BitstreamVeraSans-Roman-75"/>
       <use x="142.08984375" xlink:href="#BitstreamVeraSans-Roman-65"/>
       <use x="203.61328125" xlink:href="#BitstreamVeraSans-Roman-65"/>
       <use x="265.13671875" xlink:href="#BitstreamVeraSans-Roman-6e"/>
       <use x="328.515625" xlink:href="#BitstreamVeraSans-Roman-20"/>
       <use x="360.302734375" xlink:href="#BitstreamVeraSans-Roman-42"/>
       <use x="428.90625" xlink:href="#BitstreamVeraSans-Roman-69"/>
       <use x="456.689453125" xlink:href="#BitstreamVeraSans-Roman-74"/>
       <use x="495.8984375" xlink:href="#BitstreamVeraSans-Roman-63"/>
       <use x="550.87890625" xlink:href="#BitstreamVeraSans-Roman-68"/>
      </g>
     </g>
    </g>
    <g id="ytick_14">
     <g id="text_14">
      <!-- Nathan Adler -->
      <defs>
       <path d="M 9.8125 72.90625 
L 23.09375 72.90625 
L 55.421875 11.921875 
L 55.421875 72.90625 
L 64.984375 72.90625 
L 64.984375 0 
L 51.703125 0 
L 19.390625 60.984375 
L 19.390625 0 
L 9.8125 0 
z
" id="BitstreamVeraSans-Roman-4e"/>
      </defs>
      <g transform="translate(173.0696875 382.61769269)scale(0.16 -0.16)">
       <use xlink:href="#BitstreamVeraSans-Roman-4e"/>
       <use x="74.8046875" xlink:href="#BitstreamVeraSans-Roman-61"/>
       <use x="136.083984375" xlink:href="#BitstreamVeraSans-Roman-74"/>
       <use x="175.29296875" xlink:href="#BitstreamVeraSans-Roman-68"/>
       <use x="238.671875" xlink:href="#BitstreamVeraSans-Roman-61"/>
       <use x="299.951171875" xlink:href="#BitstreamVeraSans-Roman-6e"/>
       <use x="363.330078125" xlink:href="#BitstreamVeraSans-Roman-20"/>
       <use x="395.1171875" xlink:href="#BitstreamVeraSans-Roman-41"/>
       <use x="463.509765625" xlink:href="#BitstreamVeraSans-Roman-64"/>
       <use x="526.986328125" xlink:href="#BitstreamVeraSans-Roman-6c"/>
       <use x="554.76953125" xlink:href="#BitstreamVeraSans-Roman-65"/>
       <use x="616.29296875" xlink:href="#BitstreamVeraSans-Roman-72"/>
      </g>
     </g>
    </g>
    <g id="ytick_15">
     <g id="text_15">
      <!-- I\'m Afraid Of Americans -->
      <defs>
       <path d="M 39.40625 66.21875 
Q 28.65625 66.21875 22.328125 58.203125 
Q 16.015625 50.203125 16.015625 36.375 
Q 16.015625 22.609375 22.328125 14.59375 
Q 28.65625 6.59375 39.40625 6.59375 
Q 50.140625 6.59375 56.421875 14.59375 
Q 62.703125 22.609375 62.703125 36.375 
Q 62.703125 50.203125 56.421875 58.203125 
Q 50.140625 66.21875 39.40625 66.21875 
M 39.40625 74.21875 
Q 54.734375 74.21875 63.90625 63.9375 
Q 73.09375 53.65625 73.09375 36.375 
Q 73.09375 19.140625 63.90625 8.859375 
Q 54.734375 -1.421875 39.40625 -1.421875 
Q 24.03125 -1.421875 14.8125 8.828125 
Q 5.609375 19.09375 5.609375 36.375 
Q 5.609375 53.65625 14.8125 63.9375 
Q 24.03125 74.21875 39.40625 74.21875 
" id="BitstreamVeraSans-Roman-4f"/>
      </defs>
      <g transform="translate(82.6496875 364.739780493)scale(0.16 -0.16)">
       <use xlink:href="#BitstreamVeraSans-Roman-49"/>
       <use x="29.4921875" xlink:href="#BitstreamVeraSans-Roman-5c"/>
       <use x="63.18359375" xlink:href="#BitstreamVeraSans-Roman-27"/>
       <use x="90.673828125" xlink:href="#BitstreamVeraSans-Roman-6d"/>
       <use x="188.0859375" xlink:href="#BitstreamVeraSans-Roman-20"/>
       <use x="219.873046875" xlink:href="#BitstreamVeraSans-Roman-41"/>
       <use x="288.234375" xlink:href="#BitstreamVeraSans-Roman-66"/>
       <use x="323.439453125" xlink:href="#BitstreamVeraSans-Roman-72"/>
       <use x="364.552734375" xlink:href="#BitstreamVeraSans-Roman-61"/>
       <use x="425.83203125" xlink:href="#BitstreamVeraSans-Roman-69"/>
       <use x="453.615234375" xlink:href="#BitstreamVeraSans-Roman-64"/>
       <use x="517.091796875" xlink:href="#BitstreamVeraSans-Roman-20"/>
       <use x="548.87890625" xlink:href="#BitstreamVeraSans-Roman-4f"/>
       <use x="627.58984375" xlink:href="#BitstreamVeraSans-Roman-66"/>
       <use x="662.794921875" xlink:href="#BitstreamVeraSans-Roman-20"/>
       <use x="694.58203125" xlink:href="#BitstreamVeraSans-Roman-41"/>
       <use x="762.990234375" xlink:href="#BitstreamVeraSans-Roman-6d"/>
       <use x="860.40234375" xlink:href="#BitstreamVeraSans-Roman-65"/>
       <use x="921.92578125" xlink:href="#BitstreamVeraSans-Roman-72"/>
       <use x="963.0390625" xlink:href="#BitstreamVeraSans-Roman-69"/>
       <use x="990.822265625" xlink:href="#BitstreamVeraSans-Roman-63"/>
       <use x="1045.80273438" xlink:href="#BitstreamVeraSans-Roman-61"/>
       <use x="1107.08203125" xlink:href="#BitstreamVeraSans-Roman-6e"/>
       <use x="1170.4609375" xlink:href="#BitstreamVeraSans-Roman-73"/>
      </g>
     </g>
    </g>
    <g id="ytick_16">
     <g id="text_16">
      <!-- Law (Earthlings On Fire) -->
      <defs>
       <path d="M 8.015625 75.875 
L 15.828125 75.875 
Q 23.140625 64.359375 26.78125 53.3125 
Q 30.421875 42.28125 30.421875 31.390625 
Q 30.421875 20.453125 26.78125 9.375 
Q 23.140625 -1.703125 15.828125 -13.1875 
L 8.015625 -13.1875 
Q 14.5 -2 17.703125 9.0625 
Q 20.90625 20.125 20.90625 31.390625 
Q 20.90625 42.671875 17.703125 53.65625 
Q 14.5 64.65625 8.015625 75.875 
" id="BitstreamVeraSans-Roman-29"/>
       <path d="M 31 75.875 
Q 24.46875 64.65625 21.28125 53.65625 
Q 18.109375 42.671875 18.109375 31.390625 
Q 18.109375 20.125 21.3125 9.0625 
Q 24.515625 -2 31 -13.1875 
L 23.1875 -13.1875 
Q 15.875 -1.703125 12.234375 9.375 
Q 8.59375 20.453125 8.59375 31.390625 
Q 8.59375 42.28125 12.203125 53.3125 
Q 15.828125 64.359375 23.1875 75.875 
z
" id="BitstreamVeraSans-Roman-28"/>
       <path d="M 9.8125 72.90625 
L 51.703125 72.90625 
L 51.703125 64.59375 
L 19.671875 64.59375 
L 19.671875 43.109375 
L 48.578125 43.109375 
L 48.578125 34.8125 
L 19.671875 34.8125 
L 19.671875 0 
L 9.8125 0 
z
" id="BitstreamVeraSans-Roman-46"/>
      </defs>
      <g transform="translate(85.4996875 346.861868296)scale(0.16 -0.16)">
       <use xlink:href="#BitstreamVeraSans-Roman-4c"/>
       <use x="55.712890625" xlink:href="#BitstreamVeraSans-Roman-61"/>
       <use x="116.9921875" xlink:href="#BitstreamVeraSans-Roman-77"/>
       <use x="198.779296875" xlink:href="#BitstreamVeraSans-Roman-20"/>
       <use x="230.56640625" xlink:href="#BitstreamVeraSans-Roman-28"/>
       <use x="269.580078125" xlink:href="#BitstreamVeraSans-Roman-45"/>
       <use x="332.763671875" xlink:href="#BitstreamVeraSans-Roman-61"/>
       <use x="394.04296875" xlink:href="#BitstreamVeraSans-Roman-72"/>
       <use x="435.15625" xlink:href="#BitstreamVeraSans-Roman-74"/>
       <use x="474.365234375" xlink:href="#BitstreamVeraSans-Roman-68"/>
       <use x="537.744140625" xlink:href="#BitstreamVeraSans-Roman-6c"/>
       <use x="565.52734375" xlink:href="#BitstreamVeraSans-Roman-69"/>
       <use x="593.310546875" xlink:href="#BitstreamVeraSans-Roman-6e"/>
       <use x="656.689453125" xlink:href="#BitstreamVeraSans-Roman-67"/>
       <use x="720.166015625" xlink:href="#BitstreamVeraSans-Roman-73"/>
       <use x="772.265625" xlink:href="#BitstreamVeraSans-Roman-20"/>
       <use x="804.052734375" xlink:href="#BitstreamVeraSans-Roman-4f"/>
       <use x="882.763671875" xlink:href="#BitstreamVeraSans-Roman-6e"/>
       <use x="946.142578125" xlink:href="#BitstreamVeraSans-Roman-20"/>
       <use x="977.9296875" xlink:href="#BitstreamVeraSans-Roman-46"/>
       <use x="1035.33984375" xlink:href="#BitstreamVeraSans-Roman-69"/>
       <use x="1063.12304688" xlink:href="#BitstreamVeraSans-Roman-72"/>
       <use x="1104.20507812" xlink:href="#BitstreamVeraSans-Roman-65"/>
       <use x="1165.72851562" xlink:href="#BitstreamVeraSans-Roman-29"/>
      </g>
     </g>
    </g>
    <g id="ytick_17">
     <g id="text_17">
      <!-- Cygnet Committee -->
      <g transform="translate(127.2996875 328.983956099)scale(0.16 -0.16)">
       <use xlink:href="#BitstreamVeraSans-Roman-43"/>
       <use x="69.82421875" xlink:href="#BitstreamVeraSans-Roman-79"/>
       <use x="129.00390625" xlink:href="#BitstreamVeraSans-Roman-67"/>
       <use x="192.48046875" xlink:href="#BitstreamVeraSans-Roman-6e"/>
       <use x="255.859375" xlink:href="#BitstreamVeraSans-Roman-65"/>
       <use x="317.3828125" xlink:href="#BitstreamVeraSans-Roman-74"/>
       <use x="356.591796875" xlink:href="#BitstreamVeraSans-Roman-20"/>
       <use x="388.37890625" xlink:href="#BitstreamVeraSans-Roman-43"/>
       <use x="458.203125" xlink:href="#BitstreamVeraSans-Roman-6f"/>
       <use x="519.384765625" xlink:href="#BitstreamVeraSans-Roman-6d"/>
       <use x="616.796875" xlink:href="#BitstreamVeraSans-Roman-6d"/>
       <use x="714.208984375" xlink:href="#BitstreamVeraSans-Roman-69"/>
       <use x="741.9921875" xlink:href="#BitstreamVeraSans-Roman-74"/>
       <use x="781.201171875" xlink:href="#BitstreamVeraSans-Roman-74"/>
       <use x="820.41015625" xlink:href="#BitstreamVeraSans-Roman-65"/>
       <use x="881.93359375" xlink:href="#BitstreamVeraSans-Roman-65"/>
      </g>
     </g>
    </g>
    <g id="ytick_18">
     <g id="text_18">
      <!-- Fantastic Voyage -->
      <g transform="translate(140.1221875 311.106043901)scale(0.16 -0.16)">
       <use xlink:href="#BitstreamVeraSans-Roman-46"/>
       <use x="57.37890625" xlink:href="#BitstreamVeraSans-Roman-61"/>
       <use x="118.658203125" xlink:href="#BitstreamVeraSans-Roman-6e"/>
       <use x="182.037109375" xlink:href="#BitstreamVeraSans-Roman-74"/>
       <use x="221.24609375" xlink:href="#BitstreamVeraSans-Roman-61"/>
       <use x="282.525390625" xlink:href="#BitstreamVeraSans-Roman-73"/>
       <use x="334.625" xlink:href="#BitstreamVeraSans-Roman-74"/>
       <use x="373.833984375" xlink:href="#BitstreamVeraSans-Roman-69"/>
       <use x="401.6171875" xlink:href="#BitstreamVeraSans-Roman-63"/>
       <use x="456.59765625" xlink:href="#BitstreamVeraSans-Roman-20"/>
       <use x="488.384765625" xlink:href="#BitstreamVeraSans-Roman-56"/>
       <use x="556.68359375" xlink:href="#BitstreamVeraSans-Roman-6f"/>
       <use x="617.865234375" xlink:href="#BitstreamVeraSans-Roman-79"/>
       <use x="677.044921875" xlink:href="#BitstreamVeraSans-Roman-61"/>
       <use x="738.32421875" xlink:href="#BitstreamVeraSans-Roman-67"/>
       <use x="801.80078125" xlink:href="#BitstreamVeraSans-Roman-65"/>
      </g>
     </g>
    </g>
    <g id="ytick_19">
     <g id="text_19">
      <!-- Zeroes -->
      <defs>
       <path d="M 5.609375 72.90625 
L 62.890625 72.90625 
L 62.890625 65.375 
L 16.796875 8.296875 
L 64.015625 8.296875 
L 64.015625 0 
L 4.5 0 
L 4.5 7.515625 
L 50.59375 64.59375 
L 5.609375 64.59375 
z
" id="BitstreamVeraSans-Roman-5a"/>
      </defs>
      <g transform="translate(222.9071875 293.228131704)scale(0.16 -0.16)">
       <use xlink:href="#BitstreamVeraSans-Roman-5a"/>
       <use x="68.505859375" xlink:href="#BitstreamVeraSans-Roman-65"/>
       <use x="130.029296875" xlink:href="#BitstreamVeraSans-Roman-72"/>
       <use x="171.111328125" xlink:href="#BitstreamVeraSans-Roman-6f"/>
       <use x="232.29296875" xlink:href="#BitstreamVeraSans-Roman-65"/>
       <use x="293.81640625" xlink:href="#BitstreamVeraSans-Roman-73"/>
      </g>
     </g>
    </g>
    <g id="ytick_20">
     <g id="text_20">
      <!-- Friday On My Mind -->
      <g transform="translate(128.8021875 275.350219507)scale(0.16 -0.16)">
       <use xlink:href="#BitstreamVeraSans-Roman-46"/>
       <use x="57.41015625" xlink:href="#BitstreamVeraSans-Roman-72"/>
       <use x="98.5234375" xlink:href="#BitstreamVeraSans-Roman-69"/>
       <use x="126.306640625" xlink:href="#BitstreamVeraSans-Roman-64"/>
       <use x="189.783203125" xlink:href="#BitstreamVeraSans-Roman-61"/>
       <use x="251.0625" xlink:href="#BitstreamVeraSans-Roman-79"/>
       <use x="310.2421875" xlink:href="#BitstreamVeraSans-Roman-20"/>
       <use x="342.029296875" xlink:href="#BitstreamVeraSans-Roman-4f"/>
       <use x="420.740234375" xlink:href="#BitstreamVeraSans-Roman-6e"/>
       <use x="484.119140625" xlink:href="#BitstreamVeraSans-Roman-20"/>
       <use x="515.90625" xlink:href="#BitstreamVeraSans-Roman-4d"/>
       <use x="602.185546875" xlink:href="#BitstreamVeraSans-Roman-79"/>
       <use x="661.365234375" xlink:href="#BitstreamVeraSans-Roman-20"/>
       <use x="693.15234375" xlink:href="#BitstreamVeraSans-Roman-4d"/>
       <use x="779.431640625" xlink:href="#BitstreamVeraSans-Roman-69"/>
       <use x="807.21484375" xlink:href="#BitstreamVeraSans-Roman-6e"/>
       <use x="870.59375" xlink:href="#BitstreamVeraSans-Roman-64"/>
      </g>
     </g>
    </g>
    <g id="ytick_21">
     <g id="text_21">
      <!-- Quicksand -->
      <g transform="translate(194.5746875 257.47230731)scale(0.16 -0.16)">
       <use xlink:href="#BitstreamVeraSans-Roman-51"/>
       <use x="78.7109375" xlink:href="#BitstreamVeraSans-Roman-75"/>
       <use x="142.08984375" xlink:href="#BitstreamVeraSans-Roman-69"/>
       <use x="169.873046875" xlink:href="#BitstreamVeraSans-Roman-63"/>
       <use x="224.853515625" xlink:href="#BitstreamVeraSans-Roman-6b"/>
       <use x="282.763671875" xlink:href="#BitstreamVeraSans-Roman-73"/>
       <use x="334.86328125" xlink:href="#BitstreamVeraSans-Roman-61"/>
       <use x="396.142578125" xlink:href="#BitstreamVeraSans-Roman-6e"/>
       <use x="459.521484375" xlink:href="#BitstreamVeraSans-Roman-64"/>
      </g>
     </g>
    </g>
    <g id="ytick_22">
     <g id="text_22">
      <!-- No Control -->
      <g transform="translate(193.2271875 239.594395112)scale(0.16 -0.16)">
       <use xlink:href="#BitstreamVeraSans-Roman-4e"/>
       <use x="74.8046875" xlink:href="#BitstreamVeraSans-Roman-6f"/>
       <use x="135.986328125" xlink:href="#BitstreamVeraSans-Roman-20"/>
       <use x="167.7734375" xlink:href="#BitstreamVeraSans-Roman-43"/>
       <use x="237.59765625" xlink:href="#BitstreamVeraSans-Roman-6f"/>
       <use x="298.779296875" xlink:href="#BitstreamVeraSans-Roman-6e"/>
       <use x="362.158203125" xlink:href="#BitstreamVeraSans-Roman-74"/>
       <use x="401.3671875" xlink:href="#BitstreamVeraSans-Roman-72"/>
       <use x="442.44921875" xlink:href="#BitstreamVeraSans-Roman-6f"/>
       <use x="503.630859375" xlink:href="#BitstreamVeraSans-Roman-6c"/>
      </g>
     </g>
    </g>
    <g id="ytick_23">
     <g id="text_23">
      <!-- Five Years -->
      <defs>
       <path d="M -0.203125 72.90625 
L 10.40625 72.90625 
L 30.609375 42.921875 
L 50.6875 72.90625 
L 61.28125 72.90625 
L 35.5 34.71875 
L 35.5 0 
L 25.59375 0 
L 25.59375 34.71875 
z
" id="BitstreamVeraSans-Roman-59"/>
      </defs>
      <g transform="translate(195.9221875 221.716482915)scale(0.16 -0.16)">
       <use xlink:href="#BitstreamVeraSans-Roman-46"/>
       <use x="57.41015625" xlink:href="#BitstreamVeraSans-Roman-69"/>
       <use x="85.193359375" xlink:href="#BitstreamVeraSans-Roman-76"/>
       <use x="144.373046875" xlink:href="#BitstreamVeraSans-Roman-65"/>
       <use x="205.896484375" xlink:href="#BitstreamVeraSans-Roman-20"/>
       <use x="237.68359375" xlink:href="#BitstreamVeraSans-Roman-59"/>
       <use x="298.564453125" xlink:href="#BitstreamVeraSans-Roman-65"/>
       <use x="360.087890625" xlink:href="#BitstreamVeraSans-Roman-61"/>
       <use x="421.3671875" xlink:href="#BitstreamVeraSans-Roman-72"/>
       <use x="462.48046875" xlink:href="#BitstreamVeraSans-Roman-73"/>
      </g>
     </g>
    </g>
    <g id="ytick_24">
     <g id="text_24">
      <!-- You Feel So Lonely You Could Die -->
      <g transform="translate(10.2146875 203.838570718)scale(0.16 -0.16)">
       <use xlink:href="#BitstreamVeraSans-Roman-59"/>
       <use x="60.880859375" xlink:href="#BitstreamVeraSans-Roman-6f"/>
       <use x="122.0625" xlink:href="#BitstreamVeraSans-Roman-75"/>
       <use x="185.44140625" xlink:href="#BitstreamVeraSans-Roman-20"/>
       <use x="217.228515625" xlink:href="#BitstreamVeraSans-Roman-46"/>
       <use x="274.669921875" xlink:href="#BitstreamVeraSans-Roman-65"/>
       <use x="336.193359375" xlink:href="#BitstreamVeraSans-Roman-65"/>
       <use x="397.716796875" xlink:href="#BitstreamVeraSans-Roman-6c"/>
       <use x="425.5" xlink:href="#BitstreamVeraSans-Roman-20"/>
       <use x="457.287109375" xlink:href="#BitstreamVeraSans-Roman-53"/>
       <use x="520.763671875" xlink:href="#BitstreamVeraSans-Roman-6f"/>
       <use x="581.9453125" xlink:href="#BitstreamVeraSans-Roman-20"/>
       <use x="613.732421875" xlink:href="#BitstreamVeraSans-Roman-4c"/>
       <use x="669.4296875" xlink:href="#BitstreamVeraSans-Roman-6f"/>
       <use x="730.611328125" xlink:href="#BitstreamVeraSans-Roman-6e"/>
       <use x="793.990234375" xlink:href="#BitstreamVeraSans-Roman-65"/>
       <use x="855.513671875" xlink:href="#BitstreamVeraSans-Roman-6c"/>
       <use x="883.296875" xlink:href="#BitstreamVeraSans-Roman-79"/>
       <use x="942.4765625" xlink:href="#BitstreamVeraSans-Roman-20"/>
       <use x="974.263671875" xlink:href="#BitstreamVeraSans-Roman-59"/>
       <use x="1035.14453125" xlink:href="#BitstreamVeraSans-Roman-6f"/>
       <use x="1096.32617188" xlink:href="#BitstreamVeraSans-Roman-75"/>
       <use x="1159.70507812" xlink:href="#BitstreamVeraSans-Roman-20"/>
       <use x="1191.4921875" xlink:href="#BitstreamVeraSans-Roman-43"/>
       <use x="1261.31640625" xlink:href="#BitstreamVeraSans-Roman-6f"/>
       <use x="1322.49804688" xlink:href="#BitstreamVeraSans-Roman-75"/>
       <use x="1385.87695312" xlink:href="#BitstreamVeraSans-Roman-6c"/>
       <use x="1413.66015625" xlink:href="#BitstreamVeraSans-Roman-64"/>
       <use x="1477.13671875" xlink:href="#BitstreamVeraSans-Roman-20"/>
       <use x="1508.92382812" xlink:href="#BitstreamVeraSans-Roman-44"/>
       <use x="1585.92578125" xlink:href="#BitstreamVeraSans-Roman-69"/>
       <use x="1613.70898438" xlink:href="#BitstreamVeraSans-Roman-65"/>
      </g>
     </g>
    </g>
    <g id="ytick_25">
     <g id="text_25">
      <!-- Sweet Thing -->
      <g transform="translate(179.3096875 185.960658521)scale(0.16 -0.16)">
       <use xlink:href="#BitstreamVeraSans-Roman-53"/>
       <use x="63.4765625" xlink:href="#BitstreamVeraSans-Roman-77"/>
       <use x="145.263671875" xlink:href="#BitstreamVeraSans-Roman-65"/>
       <use x="206.787109375" xlink:href="#BitstreamVeraSans-Roman-65"/>
       <use x="268.310546875" xlink:href="#BitstreamVeraSans-Roman-74"/>
       <use x="307.51953125" xlink:href="#BitstreamVeraSans-Roman-20"/>
       <use x="339.306640625" xlink:href="#BitstreamVeraSans-Roman-54"/>
       <use x="400.390625" xlink:href="#BitstreamVeraSans-Roman-68"/>
       <use x="463.76953125" xlink:href="#BitstreamVeraSans-Roman-69"/>
       <use x="491.552734375" xlink:href="#BitstreamVeraSans-Roman-6e"/>
       <use x="554.931640625" xlink:href="#BitstreamVeraSans-Roman-67"/>
      </g>
     </g>
    </g>
    <g id="ytick_26">
     <g id="text_26">
      <!-- Sweet Thing (Reprise) -->
      <defs>
       <path d="M 44.390625 34.1875 
Q 47.5625 33.109375 50.5625 29.59375 
Q 53.5625 26.078125 56.59375 19.921875 
L 66.609375 0 
L 56 0 
L 46.6875 18.703125 
Q 43.0625 26.03125 39.671875 28.421875 
Q 36.28125 30.8125 30.421875 30.8125 
L 19.671875 30.8125 
L 19.671875 0 
L 9.8125 0 
L 9.8125 72.90625 
L 32.078125 72.90625 
Q 44.578125 72.90625 50.734375 67.671875 
Q 56.890625 62.453125 56.890625 51.90625 
Q 56.890625 45.015625 53.6875 40.46875 
Q 50.484375 35.9375 44.390625 34.1875 
M 19.671875 64.796875 
L 19.671875 38.921875 
L 32.078125 38.921875 
Q 39.203125 38.921875 42.84375 42.21875 
Q 46.484375 45.515625 46.484375 51.90625 
Q 46.484375 58.296875 42.84375 61.546875 
Q 39.203125 64.796875 32.078125 64.796875 
z
" id="BitstreamVeraSans-Roman-52"/>
      </defs>
      <g transform="translate(101.4271875 168.082746324)scale(0.16 -0.16)">
       <use xlink:href="#BitstreamVeraSans-Roman-53"/>
       <use x="63.4765625" xlink:href="#BitstreamVeraSans-Roman-77"/>
       <use x="145.263671875" xlink:href="#BitstreamVeraSans-Roman-65"/>
       <use x="206.787109375" xlink:href="#BitstreamVeraSans-Roman-65"/>
       <use x="268.310546875" xlink:href="#BitstreamVeraSans-Roman-74"/>
       <use x="307.51953125" xlink:href="#BitstreamVeraSans-Roman-20"/>
       <use x="339.306640625" xlink:href="#BitstreamVeraSans-Roman-54"/>
       <use x="400.390625" xlink:href="#BitstreamVeraSans-Roman-68"/>
       <use x="463.76953125" xlink:href="#BitstreamVeraSans-Roman-69"/>
       <use x="491.552734375" xlink:href="#BitstreamVeraSans-Roman-6e"/>
       <use x="554.931640625" xlink:href="#BitstreamVeraSans-Roman-67"/>
       <use x="618.408203125" xlink:href="#BitstreamVeraSans-Roman-20"/>
       <use x="650.1953125" xlink:href="#BitstreamVeraSans-Roman-28"/>
       <use x="689.208984375" xlink:href="#BitstreamVeraSans-Roman-52"/>
       <use x="758.62890625" xlink:href="#BitstreamVeraSans-Roman-65"/>
       <use x="820.15234375" xlink:href="#BitstreamVeraSans-Roman-70"/>
       <use x="883.62890625" xlink:href="#BitstreamVeraSans-Roman-72"/>
       <use x="924.7421875" xlink:href="#BitstreamVeraSans-Roman-69"/>
       <use x="952.525390625" xlink:href="#BitstreamVeraSans-Roman-73"/>
       <use x="1004.625" xlink:href="#BitstreamVeraSans-Roman-65"/>
       <use x="1066.1484375" xlink:href="#BitstreamVeraSans-Roman-29"/>
      </g>
     </g>
    </g>
    <g id="ytick_27">
     <g id="text_27">
      <!-- Ashes To Ashes -->
      <g transform="translate(153.3646875 150.204834126)scale(0.16 -0.16)">
       <use xlink:href="#BitstreamVeraSans-Roman-41"/>
       <use x="68.408203125" xlink:href="#BitstreamVeraSans-Roman-73"/>
       <use x="120.5078125" xlink:href="#BitstreamVeraSans-Roman-68"/>
       <use x="183.88671875" xlink:href="#BitstreamVeraSans-Roman-65"/>
       <use x="245.41015625" xlink:href="#BitstreamVeraSans-Roman-73"/>
       <use x="297.509765625" xlink:href="#BitstreamVeraSans-Roman-20"/>
       <use x="329.296875" xlink:href="#BitstreamVeraSans-Roman-54"/>
       <use x="390.115234375" xlink:href="#BitstreamVeraSans-Roman-6f"/>
       <use x="451.296875" xlink:href="#BitstreamVeraSans-Roman-20"/>
       <use x="483.083984375" xlink:href="#BitstreamVeraSans-Roman-41"/>
       <use x="551.4921875" xlink:href="#BitstreamVeraSans-Roman-73"/>
       <use x="603.591796875" xlink:href="#BitstreamVeraSans-Roman-68"/>
       <use x="666.970703125" xlink:href="#BitstreamVeraSans-Roman-65"/>
       <use x="728.494140625" xlink:href="#BitstreamVeraSans-Roman-73"/>
      </g>
     </g>
    </g>
    <g id="ytick_28">
     <g id="text_28">
      <!-- It Ain\'t Easy -->
      <g transform="translate(177.7821875 132.326921929)scale(0.16 -0.16)">
       <use xlink:href="#BitstreamVeraSans-Roman-49"/>
       <use x="29.4921875" xlink:href="#BitstreamVeraSans-Roman-74"/>
       <use x="68.701171875" xlink:href="#BitstreamVeraSans-Roman-20"/>
       <use x="100.48828125" xlink:href="#BitstreamVeraSans-Roman-41"/>
       <use x="168.896484375" xlink:href="#BitstreamVeraSans-Roman-69"/>
       <use x="196.6796875" xlink:href="#BitstreamVeraSans-Roman-6e"/>
       <use x="260.05859375" xlink:href="#BitstreamVeraSans-Roman-5c"/>
       <use x="293.75" xlink:href="#BitstreamVeraSans-Roman-27"/>
       <use x="321.240234375" xlink:href="#BitstreamVeraSans-Roman-74"/>
       <use x="360.44921875" xlink:href="#BitstreamVeraSans-Roman-20"/>
       <use x="392.236328125" xlink:href="#BitstreamVeraSans-Roman-45"/>
       <use x="455.419921875" xlink:href="#BitstreamVeraSans-Roman-61"/>
       <use x="516.69921875" xlink:href="#BitstreamVeraSans-Roman-73"/>
       <use x="568.798828125" xlink:href="#BitstreamVeraSans-Roman-79"/>
      </g>
     </g>
    </g>
    <g id="ytick_29">
     <g id="text_29">
      <!-- Candidate -->
      <g transform="translate(196.4546875 114.449009732)scale(0.16 -0.16)">
       <use xlink:href="#BitstreamVeraSans-Roman-43"/>
       <use x="69.82421875" xlink:href="#BitstreamVeraSans-Roman-61"/>
       <use x="131.103515625" xlink:href="#BitstreamVeraSans-Roman-6e"/>
       <use x="194.482421875" xlink:href="#BitstreamVeraSans-Roman-64"/>
       <use x="257.958984375" xlink:href="#BitstreamVeraSans-Roman-69"/>
       <use x="285.7421875" xlink:href="#BitstreamVeraSans-Roman-64"/>
       <use x="349.21875" xlink:href="#BitstreamVeraSans-Roman-61"/>
       <use x="410.498046875" xlink:href="#BitstreamVeraSans-Roman-74"/>
       <use x="449.70703125" xlink:href="#BitstreamVeraSans-Roman-65"/>
      </g>
     </g>
    </g>
    <g id="ytick_30">
     <g id="text_30">
      <!-- Wild Eyed Boy From Freecloud -->
      <g transform="translate(33.3221875 96.5710975346)scale(0.16 -0.16)">
       <use xlink:href="#BitstreamVeraSans-Roman-57"/>
       <use x="98.845703125" xlink:href="#BitstreamVeraSans-Roman-69"/>
       <use x="126.62890625" xlink:href="#BitstreamVeraSans-Roman-6c"/>
       <use x="154.412109375" xlink:href="#BitstreamVeraSans-Roman-64"/>
       <use x="217.888671875" xlink:href="#BitstreamVeraSans-Roman-20"/>
       <use x="249.67578125" xlink:href="#BitstreamVeraSans-Roman-45"/>
       <use x="312.859375" xlink:href="#BitstreamVeraSans-Roman-79"/>
       <use x="372.0390625" xlink:href="#BitstreamVeraSans-Roman-65"/>
       <use x="433.5625" xlink:href="#BitstreamVeraSans-Roman-64"/>
       <use x="497.0390625" xlink:href="#BitstreamVeraSans-Roman-20"/>
       <use x="528.826171875" xlink:href="#BitstreamVeraSans-Roman-42"/>
       <use x="597.4296875" xlink:href="#BitstreamVeraSans-Roman-6f"/>
       <use x="658.611328125" xlink:href="#BitstreamVeraSans-Roman-79"/>
       <use x="717.791015625" xlink:href="#BitstreamVeraSans-Roman-20"/>
       <use x="749.578125" xlink:href="#BitstreamVeraSans-Roman-46"/>
       <use x="806.98828125" xlink:href="#BitstreamVeraSans-Roman-72"/>
       <use x="848.0703125" xlink:href="#BitstreamVeraSans-Roman-6f"/>
       <use x="909.251953125" xlink:href="#BitstreamVeraSans-Roman-6d"/>
       <use x="1006.6640625" xlink:href="#BitstreamVeraSans-Roman-20"/>
       <use x="1038.45117188" xlink:href="#BitstreamVeraSans-Roman-46"/>
       <use x="1095.86132812" xlink:href="#BitstreamVeraSans-Roman-72"/>
       <use x="1136.94335938" xlink:href="#BitstreamVeraSans-Roman-65"/>
       <use x="1198.46679688" xlink:href="#BitstreamVeraSans-Roman-65"/>
       <use x="1259.99023438" xlink:href="#BitstreamVeraSans-Roman-63"/>
       <use x="1314.97070312" xlink:href="#BitstreamVeraSans-Roman-6c"/>
       <use x="1342.75390625" xlink:href="#BitstreamVeraSans-Roman-6f"/>
       <use x="1403.93554688" xlink:href="#BitstreamVeraSans-Roman-75"/>
       <use x="1467.31445312" xlink:href="#BitstreamVeraSans-Roman-64"/>
      </g>
     </g>
    </g>
    <g id="ytick_31">
     <g id="text_31">
      <!-- Neighborhood Threat -->
      <g transform="translate(107.8046875 78.6931853374)scale(0.16 -0.16)">
       <use xlink:href="#BitstreamVeraSans-Roman-4e"/>
       <use x="74.8046875" xlink:href="#BitstreamVeraSans-Roman-65"/>
       <use x="136.328125" xlink:href="#BitstreamVeraSans-Roman-69"/>
       <use x="164.111328125" xlink:href="#BitstreamVeraSans-Roman-67"/>
       <use x="227.587890625" xlink:href="#BitstreamVeraSans-Roman-68"/>
       <use x="290.966796875" xlink:href="#BitstreamVeraSans-Roman-62"/>
       <use x="354.443359375" xlink:href="#BitstreamVeraSans-Roman-6f"/>
       <use x="415.625" xlink:href="#BitstreamVeraSans-Roman-72"/>
       <use x="456.72265625" xlink:href="#BitstreamVeraSans-Roman-68"/>
       <use x="520.1015625" xlink:href="#BitstreamVeraSans-Roman-6f"/>
       <use x="581.283203125" xlink:href="#BitstreamVeraSans-Roman-6f"/>
       <use x="642.46484375" xlink:href="#BitstreamVeraSans-Roman-64"/>
       <use x="705.94140625" xlink:href="#BitstreamVeraSans-Roman-20"/>
       <use x="737.728515625" xlink:href="#BitstreamVeraSans-Roman-54"/>
       <use x="798.8125" xlink:href="#BitstreamVeraSans-Roman-68"/>
       <use x="862.19140625" xlink:href="#BitstreamVeraSans-Roman-72"/>
       <use x="903.2734375" xlink:href="#BitstreamVeraSans-Roman-65"/>
       <use x="964.796875" xlink:href="#BitstreamVeraSans-Roman-61"/>
       <use x="1026.07617188" xlink:href="#BitstreamVeraSans-Roman-74"/>
      </g>
     </g>
    </g>
    <g id="ytick_32">
     <g id="text_32">
      <!-- How Does The Grass Grow? -->
      <defs>
       <path d="M 59.515625 10.40625 
L 59.515625 29.984375 
L 43.40625 29.984375 
L 43.40625 38.09375 
L 69.28125 38.09375 
L 69.28125 6.78125 
Q 63.578125 2.734375 56.6875 0.65625 
Q 49.8125 -1.421875 42 -1.421875 
Q 24.90625 -1.421875 15.25 8.5625 
Q 5.609375 18.5625 5.609375 36.375 
Q 5.609375 54.25 15.25 64.234375 
Q 24.90625 74.21875 42 74.21875 
Q 49.125 74.21875 55.546875 72.453125 
Q 61.96875 70.703125 67.390625 67.28125 
L 67.390625 56.78125 
Q 61.921875 61.421875 55.765625 63.765625 
Q 49.609375 66.109375 42.828125 66.109375 
Q 29.4375 66.109375 22.71875 58.640625 
Q 16.015625 51.171875 16.015625 36.375 
Q 16.015625 21.625 22.71875 14.15625 
Q 29.4375 6.6875 42.828125 6.6875 
Q 48.046875 6.6875 52.140625 7.59375 
Q 56.25 8.5 59.515625 10.40625 
" id="BitstreamVeraSans-Roman-47"/>
       <path d="M 19.09375 12.40625 
L 29 12.40625 
L 29 0 
L 19.09375 0 
z
M 28.71875 19.578125 
L 19.390625 19.578125 
L 19.390625 27.09375 
Q 19.390625 32.03125 20.75 35.203125 
Q 22.125 38.375 26.515625 42.578125 
L 30.90625 46.921875 
Q 33.6875 49.515625 34.9375 51.8125 
Q 36.1875 54.109375 36.1875 56.5 
Q 36.1875 60.84375 32.984375 63.53125 
Q 29.78125 66.21875 24.515625 66.21875 
Q 20.65625 66.21875 16.28125 64.5 
Q 11.921875 62.796875 7.171875 59.515625 
L 7.171875 68.703125 
Q 11.765625 71.484375 16.46875 72.84375 
Q 21.1875 74.21875 26.21875 74.21875 
Q 35.203125 74.21875 40.640625 69.484375 
Q 46.09375 64.75 46.09375 56.984375 
Q 46.09375 53.265625 44.328125 49.921875 
Q 42.578125 46.578125 38.1875 42.390625 
L 33.890625 38.1875 
Q 31.59375 35.890625 30.640625 34.59375 
Q 29.6875 33.296875 29.296875 32.078125 
Q 29 31.0625 28.859375 29.59375 
Q 28.71875 28.125 28.71875 25.59375 
z
" id="BitstreamVeraSans-Roman-3f"/>
      </defs>
      <g transform="translate(57.1721875 60.8152731401)scale(0.16 -0.16)">
       <use xlink:href="#BitstreamVeraSans-Roman-48"/>
       <use x="75.1953125" xlink:href="#BitstreamVeraSans-Roman-6f"/>
       <use x="136.376953125" xlink:href="#BitstreamVeraSans-Roman-77"/>
       <use x="218.1640625" xlink:href="#BitstreamVeraSans-Roman-20"/>
       <use x="249.951171875" xlink:href="#BitstreamVeraSans-Roman-44"/>
       <use x="326.953125" xlink:href="#BitstreamVeraSans-Roman-6f"/>
       <use x="388.134765625" xlink:href="#BitstreamVeraSans-Roman-65"/>
       <use x="449.658203125" xlink:href="#BitstreamVeraSans-Roman-73"/>
       <use x="501.7578125" xlink:href="#BitstreamVeraSans-Roman-20"/>
       <use x="533.544921875" xlink:href="#BitstreamVeraSans-Roman-54"/>
       <use x="594.62890625" xlink:href="#BitstreamVeraSans-Roman-68"/>
       <use x="658.0078125" xlink:href="#BitstreamVeraSans-Roman-65"/>
       <use x="719.53125" xlink:href="#BitstreamVeraSans-Roman-20"/>
       <use x="751.318359375" xlink:href="#BitstreamVeraSans-Roman-47"/>
       <use x="828.80859375" xlink:href="#BitstreamVeraSans-Roman-72"/>
       <use x="869.921875" xlink:href="#BitstreamVeraSans-Roman-61"/>
       <use x="931.201171875" xlink:href="#BitstreamVeraSans-Roman-73"/>
       <use x="983.30078125" xlink:href="#BitstreamVeraSans-Roman-73"/>
       <use x="1035.40039062" xlink:href="#BitstreamVeraSans-Roman-20"/>
       <use x="1067.1875" xlink:href="#BitstreamVeraSans-Roman-47"/>
       <use x="1144.67773438" xlink:href="#BitstreamVeraSans-Roman-72"/>
       <use x="1185.75976562" xlink:href="#BitstreamVeraSans-Roman-6f"/>
       <use x="1246.94140625" xlink:href="#BitstreamVeraSans-Roman-77"/>
       <use x="1328.72851562" xlink:href="#BitstreamVeraSans-Roman-3f"/>
      </g>
     </g>
    </g>
    <g id="ytick_33">
     <g id="text_33">
      <!-- Maid Of Bond Street -->
      <g transform="translate(116.5296875 42.9373609429)scale(0.16 -0.16)">
       <use xlink:href="#BitstreamVeraSans-Roman-4d"/>
       <use x="86.279296875" xlink:href="#BitstreamVeraSans-Roman-61"/>
       <use x="147.55859375" xlink:href="#BitstreamVeraSans-Roman-69"/>
       <use x="175.341796875" xlink:href="#BitstreamVeraSans-Roman-64"/>
       <use x="238.818359375" xlink:href="#BitstreamVeraSans-Roman-20"/>
       <use x="270.60546875" xlink:href="#BitstreamVeraSans-Roman-4f"/>
       <use x="349.31640625" xlink:href="#BitstreamVeraSans-Roman-66"/>
       <use x="384.521484375" xlink:href="#BitstreamVeraSans-Roman-20"/>
       <use x="416.30859375" xlink:href="#BitstreamVeraSans-Roman-42"/>
       <use x="484.912109375" xlink:href="#BitstreamVeraSans-Roman-6f"/>
       <use x="546.09375" xlink:href="#BitstreamVeraSans-Roman-6e"/>
       <use x="609.47265625" xlink:href="#BitstreamVeraSans-Roman-64"/>
       <use x="672.94921875" xlink:href="#BitstreamVeraSans-Roman-20"/>
       <use x="704.736328125" xlink:href="#BitstreamVeraSans-Roman-53"/>
       <use x="768.212890625" xlink:href="#BitstreamVeraSans-Roman-74"/>
       <use x="807.421875" xlink:href="#BitstreamVeraSans-Roman-72"/>
       <use x="848.50390625" xlink:href="#BitstreamVeraSans-Roman-65"/>
       <use x="910.02734375" xlink:href="#BitstreamVeraSans-Roman-65"/>
       <use x="971.55078125" xlink:href="#BitstreamVeraSans-Roman-74"/>
      </g>
     </g>
    </g>
    <g id="ytick_34">
     <g id="text_34">
      <!-- Criminal World -->
      <g transform="translate(159.7771875 25.0594487457)scale(0.16 -0.16)">
       <use xlink:href="#BitstreamVeraSans-Roman-43"/>
       <use x="69.82421875" xlink:href="#BitstreamVeraSans-Roman-72"/>
       <use x="110.9375" xlink:href="#BitstreamVeraSans-Roman-69"/>
       <use x="138.720703125" xlink:href="#BitstreamVeraSans-Roman-6d"/>
       <use x="236.1328125" xlink:href="#BitstreamVeraSans-Roman-69"/>
       <use x="263.916015625" xlink:href="#BitstreamVeraSans-Roman-6e"/>
       <use x="327.294921875" xlink:href="#BitstreamVeraSans-Roman-61"/>
       <use x="388.57421875" xlink:href="#BitstreamVeraSans-Roman-6c"/>
       <use x="416.357421875" xlink:href="#BitstreamVeraSans-Roman-20"/>
       <use x="448.14453125" xlink:href="#BitstreamVeraSans-Roman-57"/>
       <use x="546.943359375" xlink:href="#BitstreamVeraSans-Roman-6f"/>
       <use x="608.125" xlink:href="#BitstreamVeraSans-Roman-72"/>
       <use x="649.23828125" xlink:href="#BitstreamVeraSans-Roman-6c"/>
       <use x="677.021484375" xlink:href="#BitstreamVeraSans-Roman-64"/>
      </g>
     </g>
    </g>
   </g>
   <g id="text_35">
    <!-- Grupo 0 -->
    <defs>
     <path d="M 31.78125 66.40625 
Q 24.171875 66.40625 20.328125 58.90625 
Q 16.5 51.421875 16.5 36.375 
Q 16.5 21.390625 20.328125 13.890625 
Q 24.171875 6.390625 31.78125 6.390625 
Q 39.453125 6.390625 43.28125 13.890625 
Q 47.125 21.390625 47.125 36.375 
Q 47.125 51.421875 43.28125 58.90625 
Q 39.453125 66.40625 31.78125 66.40625 
M 31.78125 74.21875 
Q 44.046875 74.21875 50.515625 64.515625 
Q 56.984375 54.828125 56.984375 36.375 
Q 56.984375 17.96875 50.515625 8.265625 
Q 44.046875 -1.421875 31.78125 -1.421875 
Q 19.53125 -1.421875 13.0625 8.265625 
Q 6.59375 17.96875 6.59375 36.375 
Q 6.59375 54.828125 13.0625 64.515625 
Q 19.53125 74.21875 31.78125 74.21875 
" id="BitstreamVeraSans-Roman-30"/>
    </defs>
    <g transform="translate(409.32453125 6.70549264706)scale(0.12 -0.12)">
     <use xlink:href="#BitstreamVeraSans-Roman-47"/>
     <use x="77.490234375" xlink:href="#BitstreamVeraSans-Roman-72"/>
     <use x="118.603515625" xlink:href="#BitstreamVeraSans-Roman-75"/>
     <use x="181.982421875" xlink:href="#BitstreamVeraSans-Roman-70"/>
     <use x="245.458984375" xlink:href="#BitstreamVeraSans-Roman-6f"/>
     <use x="306.640625" xlink:href="#BitstreamVeraSans-Roman-20"/>
     <use x="338.427734375" xlink:href="#BitstreamVeraSans-Roman-30"/>
    </g>
   </g>
  </g>
 </g>
 <defs>
  <clipPath id="p9d842df7f3">
   <rect height="607.849014706" width="302.3853125" x="282.2546875" y="11.7054926471"/>
  </clipPath>
 </defs>
</svg>
